<?xml version="1.0" encoding="utf-8"?>
<!-- Generator: Adobe Illustrator 26.3.1, SVG Export Plug-In . SVG Version: 6.00 Build 0)  -->
<svg version="1.1" id="Слой_1" xmlns="http://www.w3.org/2000/svg" xmlns:xlink="http://www.w3.org/1999/xlink" x="0px" y="0px"
	 viewBox="0 0 1920 1920" style="enable-background:new 0 0 1920 1920;" xml:space="preserve">
<style type="text/css">
	.st0{fill:#5A5A5A;}
</style>
<g>
	<path class="st0" d="M1793,421.3l-245.4-122.1l-156.1-77.6L960,7L126,421.8L0,484.5v954.9l960,477.5l960-477.5V484.5L1793,421.3z
		 M960.5,132.8l304.8,151.6L516.6,656.7h0L211.9,505.2L960.5,132.8z M887,1754.4l-760-378V619l232.8,115.8l156.1,77.6L887,996.9
		V1754.4z M959.5,877L887,840.9L672.7,734.3L1421.3,362l286.8,142.6L1032,840.9L959.5,877z M1794,1376.4l-762,379V996.9l696.1-346.2
		l0.1,0.1l65.8-32.2V1376.4z"/>
</g>
</svg>
