<?xml version="1.0" encoding="utf-8"?>
<!-- Generator: Adobe Illustrator 26.3.1, SVG Export Plug-In . SVG Version: 6.00 Build 0)  -->
<svg version="1.1" id="Слой_1" xmlns="http://www.w3.org/2000/svg" xmlns:xlink="http://www.w3.org/1999/xlink" x="0px" y="0px"
	 viewBox="0 0 4000 4000" style="enable-background:new 0 0 4000 4000;" xml:space="preserve">
<style type="text/css">
	.st0{fill:#FFFFFF;}
	.st1{fill:none;stroke:#000000;stroke-miterlimit:10;}
</style>
<g id="XMLID_00000057111890388837204570000016487636599126293385_">
	<g>
		<path class="st0" d="M144.5,2340.49c-16.62-0.1-32.58-2.99-47.44-8.21c-41.51-14.6-74.44-47.43-89.17-88.88
			c-5.43-15.29-8.39-31.75-8.39-48.9V1609c0-17.01,2.9-33.33,8.22-48.52c14.65-41.74,47.66-74.84,89.34-89.61
			c12.01-4.25,24.74-6.98,37.96-7.96h21.96h485.18l40.27-59.38l25.9-38.18l66.17-97.56h5.49v-8.09l60.69-89.47l36.87-54.36
			l29.3-43.2l66.18-97.56h2.08v-3.07l64.09-94.49l33.47-49.34l32.71-48.22l64.85-95.61l1.32-1.95l66.17-97.56l30.07-44.33
			l36.11-53.24l61.45-90.59l4.73-6.97l66.17-97.56l26.66-39.3l39.52-58.26l58.05-85.59l8.12-11.97l17.23-25.4
			c18.21-26.85,43.79-45.71,72.21-55.72c15.64-5.51,32.15-8.34,48.76-8.34c16.41,0,32.92,2.76,48.8,8.43
			c11.42,4.06,22.52,9.64,33.02,16.76c24.32,16.5,42.09,39.04,52.66,64.27c12.82,30.58,15.05,65.1,5.55,97.56
			c-4.16,14.21-10.58,28.03-19.34,40.95l-38.4,56.61l-33.49,49.38l-32.68,48.18l-64.88,95.65l-1.3,1.91l-66.18,97.57l-30.08,44.35
			l-36.09,53.21l-61.48,90.64l-4.7,6.92l-66.17,97.56l-26.69,39.35l-39.49,58.21l-58.07,85.62l-8.1,11.94l-66.17,97.56l-23.29,34.33
			l-42.89,63.23l-54.67,80.6l-11.5,16.96l-66.18,97.56h2013.78l-66.18-97.56l-16.26-23.98l-49.91-73.58l-47.65-70.25l-18.52-27.31
			l-66.18-97.56l-12.86-18.96l-53.31-78.6l-44.25-65.24l-21.92-32.32l-66.18-97.56l-9.46-13.95l-56.71-83.61l-40.86-60.24
			l-25.32-37.32l-66.18-97.57l-6.06-8.94l-60.11-88.62l-37.45-55.21l-28.72-42.35l-41.38-61c-7.86-11.58-13.83-23.89-17.97-36.56
			c-10.55-32.18-9.36-66.69,2.42-97.56c10.3-27,28.69-51.21,54.42-68.66c9.95-6.75,20.44-12.11,31.23-16.11
			c16.43-6.11,33.56-9.08,50.59-9.08c15.98,0,31.86,2.62,46.97,7.72c29.13,9.84,55.4,28.93,73.99,56.34l20.21,29.79l3.36,4.96
			l62.81,92.6l34.76,51.25l31.41,46.31l66.15,97.52v0.04h0.03l66.17,97.56l31.36,46.23l34.82,51.34l62.74,92.49v5.07h3.44
			l66.17,97.56l27.95,41.21l38.22,56.35l59.34,87.48l6.84,10.08l66.17,97.56l24.55,36.19l41.62,61.37l55.94,82.47l10.24,15.09
			l66.17,97.56l21.15,31.18l45.03,66.38h480.42h21.96c13.22,0.98,25.95,3.71,37.96,7.96c41.68,14.77,74.69,47.87,89.34,89.61
			c5.32,15.19,8.22,31.51,8.22,48.52v585.5c0,17.15-2.97,33.61-8.42,48.9c-14.74,41.34-47.64,74.1-89.14,88.76
			c-15.15,5.35-31.46,8.28-48.44,8.34v0.46h-4.29l-11.1,57.52l-7.73,40.04l-11.1,57.52l-7.73,40.05l-7.17,37.16l-3.93,20.36
			l-7.72,40.04l-2.15,11.12l-8.95,46.4l-7.73,40.04l-11.1,57.52l-7.73,40.04l-11.1,57.52l-7.72,40.04l-11.1,57.52l-7.73,40.04
			l-10.6,54.93l-0.5,2.59l-7.73,40.04l-5.57,28.87l-5.53,28.65l-7.72,40.04l-11.1,57.52l-7.73,40.04l-11.1,57.52l-7.73,40.04
			l-11.1,57.52l-7.73,40.05l-11.1,57.52l-2.92,15.13l-0.57,2.97v0.03l-4.24,21.91l-8.99,46.62l-2.1,10.9l-0.85,4.36l-0.01,0.05v0.02
			l-5.44,28.18l-0.01,0.03l-0.01,0.03c-0.81,2.47-1.65,4.93-2.52,7.37c-12.27,34.74-28.8,67.47-48.95,97.56
			c-7.46,11.16-15.43,21.96-23.87,32.36c-19.4,23.95-41.29,45.81-65.25,65.2c-10.39,8.41-21.18,16.36-32.32,23.8
			c-30.1,20.12-62.83,36.62-97.56,48.87c-26.88,9.48-54.97,16.42-83.97,20.53c-4.51,0.64-9.04,1.21-13.59,1.7
			c-15.93,1.76-32.11,2.66-48.51,2.66c-16.58,0-32.95-0.92-49.05-2.71v2.71H828.5c-16.4,0-32.58-0.9-48.51-2.66
			c-5.49-0.59-10.95-1.3-16.37-2.11c-28.01-4.14-55.17-10.94-81.19-20.12c-34.73-12.25-67.46-28.75-97.56-48.87
			c-11.14-7.44-21.93-15.39-32.32-23.8c-23.96-19.39-45.85-41.25-65.25-65.2c-8.44-10.4-16.41-21.2-23.87-32.36
			c-20.15-30.09-36.68-62.82-48.95-97.56c-3.78-10.69-7.16-21.57-10.11-32.63l-0.01-0.05v-0.01l-11.66-60.44v-0.02l-0.01-0.05
			c-0.18-1.45-0.35-2.9-0.51-4.36h-0.34l-2.1-10.9l-16.72-86.66l-18.83-97.57l-18.83-97.56l-18.83-97.56l-18.82-97.56l-5.53-28.65
			l-13.3-68.91l-18.83-97.56l-18.82-97.56l-18.83-97.56l-18.83-97.56l-8.95-46.4l-9.87-51.16l-18.83-97.57l-18.83-97.56h-2.59
			V2340.49z M829.5,3706.82h2326.34c4.66,0.45,9.38,0.68,14.16,0.68s9.5-0.23,14.16-0.68c12.11-1.16,23.78-3.79,34.85-7.72
			c39.38-13.97,71.01-44.31,86.71-82.84v-0.01c0.94-2.3,1.82-4.63,2.65-6.99h-1.3l7.73-40.04l1.7-8.73v-0.07l0.07-0.38l9.32-48.34
			l7.73-40.05l11.1-57.52l18.83-97.56l7.73-40.04l7.22-37.43l3.88-20.09l7.49-38.85l0.23-1.19l10.23-52.99l0.87-4.53l7.73-40.04
			l5.2-26.94l5.9-30.58l7.73-40.04l11.1-57.52l7.72-40.04l11.1-57.52l7.73-40.04l11.1-57.52l7.73-40.04l11.1-57.52l2.56-13.27
			l5.17-26.77l8.63-44.74l2.46-12.78l7.73-40.05l11.1-57.52l7.73-40.04l11.1-57.52l0.14-0.71c-9.69-0.55-19.13-2.06-28.23-4.42
			c-4.08-1.06-8.1-2.29-12.03-3.68c-41.34-14.66-74.12-47.42-88.81-88.75c-5.38-15.14-8.33-31.43-8.39-48.4v-0.5
			c0-17.06,2.93-33.44,8.3-48.66c9.81-27.74,27.77-51.64,50.99-68.82c11.47-8.48,24.22-15.31,37.91-20.17
			c15.26-5.41,31.68-8.35,48.8-8.35v-0.22h146.32V1755.6H292.18v292.68H2974.5v0.22c81.19,0,147,65.81,147,147
			c0,73.95-54.59,135.13-125.67,145.46h-42.66H444.48l18.83,97.56l18.82,97.57l5.17,26.77l13.66,70.79l18.83,97.56l18.83,97.56
			l18.82,97.56l18.83,97.56l8.6,44.57l10.23,52.99l11.6,60.13l7.22,37.43l37.66,195.12l18.82,97.57l12.03,62.32l6.8,35.24h2.61
			c14.58,41.16,47.1,73.83,88.15,88.63c15.46,5.57,32.13,8.61,49.51,8.61V3706.82z"/>
		<path class="st0" d="M2926.33,2769.93v502.14c-0.74,15.6-3.92,30.56-9.17,44.5c-15.17,40.36-47.65,72.24-88.39,86.62
			c-15.26,5.38-31.67,8.31-48.77,8.31c-7.47,0-14.81-0.56-21.97-1.64c-9.25-1.39-18.22-3.64-26.82-6.68
			c-40.73-14.38-73.2-46.26-88.37-86.61c-5.3-14.08-8.49-29.2-9.19-44.97v-501.2c0.6-13.63,3.07-26.78,7.15-39.19
			c14.16-43.08,47.76-77.33,90.41-92.39c5.98-2.11,12.14-3.84,18.44-5.17h60.7c6.3,1.32,12.45,3.06,18.42,5.16
			c20.84,7.36,39.51,19.29,54.82,34.6c16.03,16.03,28.36,35.76,35.61,57.8C2923.24,2743.48,2925.69,2756.46,2926.33,2769.93z"/>
		<path class="st0" d="M2146.4,2772.65v498.7c-0.58,16.22-3.8,31.77-9.24,46.22c-15.03,39.97-47.04,71.63-87.23,86.2
			c-0.55-0.18-1.1-0.37-1.65-0.56v1.15c-15.12,5.27-31.36,8.14-48.28,8.14c-17.08,0-33.48-2.92-48.72-8.29
			c-0.19-0.07-0.38-0.13-0.56-0.2c-40.5-14.46-72.77-46.26-87.88-86.44c-0.12-0.33-0.25-0.66-0.37-1
			c-4.92-13.36-7.95-27.64-8.75-42.52v-504.1c0.71-13.11,3.14-25.77,7.08-37.74c0.11-0.34,0.22-0.67,0.34-1
			c14.29-42.44,47.49-76.19,89.58-91.22c0.18-0.07,0.37-0.13,0.56-0.2c5.96-2.09,12.09-3.82,18.37-5.14h60.7
			c5.7,1.2,11.28,2.73,16.72,4.58c0.59,0.19,1.18,0.39,1.77,0.6c20.81,7.36,39.46,19.29,54.75,34.58
			c16.03,16.03,28.36,35.76,35.61,57.8C2143.41,2745,2145.9,2758.57,2146.4,2772.65z"/>
		<path class="st0" d="M1365.35,2773.4v501.2c-0.65,14.65-3.45,28.74-8.09,41.97c-14.67,41.76-47.74,74.88-89.47,89.61
			c-8.29,2.92-16.91,5.13-25.8,6.52c-4.14,0.66-8.33,1.14-12.58,1.43h-20.82c-13.36-0.93-26.23-3.66-38.36-7.94
			c-41.74-14.73-74.82-47.85-89.49-89.62c-4.59-13.08-7.38-27.02-8.07-41.5v-502.14c0.69-14.57,3.51-28.57,8.15-41.72
			c14.71-41.67,47.74-74.69,89.41-89.4c13.28-4.68,27.44-7.51,42.17-8.16h13.2c14.74,0.65,28.9,3.48,42.19,8.17
			c20.83,7.36,39.5,19.29,54.8,34.59c15.3,15.3,27.23,33.97,34.59,54.8C1361.87,2744.5,1364.7,2758.66,1365.35,2773.4z"/>
	</g>
	<g>
		<line class="st1" x1="3170.5" y1="3999.5" x2="3121.45" y2="3999.5"/>
		<line class="st1" x1="3184.16" y1="3706.82" x2="3155.84" y2="3706.82"/>
		<line class="st1" x1="3999.5" y1="1560.48" x2="3991.28" y2="1560.48"/>
		<line class="st1" x1="7.72" y1="1560.48" x2="-0.5" y2="1560.48"/>
		<polyline class="st1" points="135.02,1462.91 97.06,1462.91 -0.5,1462.91 		"/>
		<line class="st1" x1="3219.01" y1="3999.5" x2="3219.01" y2="3996.84"/>
		<line class="st1" x1="779.99" y1="3999.5" x2="779.99" y2="3996.84"/>
		<path class="st1" d="M135.02,1462.91c3.62-0.27,7.29-0.41,10.98-0.41s7.36,0.14,10.98,0.41"/>
		<path class="st1" d="M3842.02,1462.91c3.62-0.27,7.29-0.41,10.98-0.41s7.36,0.14,10.98,0.41"/>
		<path class="st1" d="M3414.5,2195c0,3.5-0.12,6.97-0.37,10.41v-20.82c0.24,3.28,0.36,6.58,0.37,9.91"/>
		<path class="st1" d="M404.36,3674.13c-5.26-19.64-9.18-39.82-11.66-60.44"/>
		<path class="st1" d="M3608.69,3587.35c-0.44,7.36-1.07,14.66-1.87,21.91c-3.44,31.14-10.14,61.3-19.76,90.13"/>
		<line class="st1" x1="296.5" y1="2194.5" x2="292.18" y2="2194.5"/>
		<line class="st1" x1="291.5" y1="2194.5" x2="287.5" y2="2194.5"/>
		<line class="st1" x1="144.5" y1="2344.5" x2="144.5" y2="2340.96"/>
		<line class="st1" x1="144.5" y1="2340.49" x2="144.5" y2="2336.5"/>
		<path class="st1" d="M392.69,3613.62l0.01,0.05v0.02l11.66,60.44v0.01l0.01,0.05c2.95,11.06,6.33,21.94,10.11,32.63
			c12.27,34.74,28.8,67.47,48.95,97.56c7.46,11.16,15.43,21.96,23.87,32.36c19.4,23.95,41.29,45.81,65.25,65.2
			c10.39,8.41,21.18,16.36,32.32,23.8c30.1,20.12,62.83,36.62,97.56,48.87c26.02,9.18,53.18,15.98,81.19,20.12
			c5.42,0.81,10.88,1.52,16.37,2.11c15.93,1.76,32.11,2.66,48.51,2.66h2292.95v-2.71c16.1,1.79,32.47,2.71,49.05,2.71
			c16.4,0,32.58-0.9,48.51-2.66c4.55-0.49,9.08-1.06,13.59-1.7c29-4.11,57.09-11.05,83.97-20.53
			c34.73-12.25,67.46-28.75,97.56-48.87c11.14-7.44,21.93-15.39,32.32-23.8c23.96-19.39,45.85-41.25,65.25-65.2
			c8.44-10.4,16.41-21.2,23.87-32.36c20.15-30.09,36.68-62.82,48.95-97.56c0.87-2.44,1.71-4.9,2.52-7.37l0.01-0.03l0.01-0.03
			l5.44-28.18v-0.02l0.01-0.05l0.85-4.36l2.1-10.9l8.99-46.62l4.24-21.91v-0.03l0.57-2.97l2.92-15.13l11.1-57.52l7.73-40.05
			l11.1-57.52l7.73-40.04l11.1-57.52l7.73-40.04l11.1-57.52l7.72-40.04l5.53-28.65l5.57-28.87l7.73-40.04l0.5-2.59l10.6-54.93
			l7.73-40.04l11.1-57.52l7.72-40.04l11.1-57.52l7.73-40.04l11.1-57.52l7.73-40.04l8.95-46.4l2.15-11.12l7.72-40.04l3.93-20.36
			l7.17-37.16l7.73-40.05l11.1-57.52l7.73-40.04l11.1-57.52h4.29v-0.46c16.98-0.06,33.29-2.99,48.44-8.34
			c41.5-14.66,74.4-47.42,89.14-88.76c5.45-15.29,8.42-31.75,8.42-48.9V1609c0-17.01-2.9-33.33-8.22-48.52
			c-14.65-41.74-47.66-74.84-89.34-89.61c-12.01-4.25-24.74-6.98-37.96-7.96h-21.96H3361.6l-45.03-66.38l-21.15-31.18l-66.17-97.56
			l-10.24-15.09l-55.94-82.47l-41.62-61.37l-24.55-36.19l-66.17-97.56l-6.84-10.08l-59.34-87.48l-38.22-56.35l-27.95-41.21
			l-66.17-97.56"/>
		<path class="st1" d="M774.5,1267.79l-66.17,97.56l-25.9,38.18l-40.27,59.38H156.98h-21.96c-13.22,0.98-25.95,3.71-37.96,7.96
			c-41.68,14.77-74.69,47.87-89.34,89.61C2.4,1575.67-0.5,1591.99-0.5,1609v585.5c0,17.15,2.96,33.61,8.39,48.9
			c14.73,41.45,47.66,74.28,89.17,88.88c14.86,5.22,30.82,8.11,47.44,8.21v0.47h2.59l18.83,97.56l18.83,97.57l9.87,51.16l8.95,46.4
			l18.83,97.56l18.83,97.56l18.82,97.56l18.83,97.56l13.3,68.91l5.53,28.65l18.82,97.56l18.83,97.56l18.83,97.56l18.83,97.57
			l16.72,86.66l2.1,10.9"/>
		<polyline class="st1" points="973.03,975.11 906.85,1072.67 877.55,1115.87 840.68,1170.23 779.99,1259.7 		"/>
		<path class="st1" d="M2633.65,389.7l-66.15-97.52l-31.41-46.31l-34.76-51.25l-62.81-92.6l-3.36-4.96l-20.21-29.79
			c-18.59-27.41-44.86-46.5-73.99-56.34c-15.11-5.1-30.99-7.72-46.97-7.72c-17.03,0-34.16,2.97-50.59,9.08
			c-10.79,4-21.28,9.36-31.23,16.11c-25.73,17.45-44.12,41.66-54.42,68.66c-11.78,30.87-12.97,65.38-2.42,97.56
			c4.14,12.67,10.11,24.98,17.97,36.56l41.38,61l28.72,42.35l37.45,55.21l60.11,88.62l6.06,8.94l66.18,97.57l25.32,37.32
			l40.86,60.24l56.71,83.61l9.46,13.95l66.18,97.56l21.92,32.32l44.25,65.24l53.31,78.6l12.86,18.96l66.18,97.56l18.52,27.31
			l47.65,70.25l49.91,73.58l16.26,23.98l66.18,97.56H994.99l66.18-97.56l11.5-16.96l54.67-80.6l42.89-63.23l23.29-34.33l66.17-97.56
			l8.1-11.94l58.07-85.62l39.49-58.21l26.69-39.35l66.17-97.56l4.7-6.92l61.48-90.64l36.09-53.21l30.08-44.35l66.18-97.57l1.3-1.91
			l64.88-95.65l32.68-48.18l33.49-49.38l38.4-56.61c8.76-12.92,15.18-26.74,19.34-40.95c9.5-32.46,7.27-66.98-5.55-97.56
			c-10.57-25.23-28.34-47.77-52.66-64.27c-10.5-7.12-21.6-12.7-33.02-16.76c-15.88-5.67-32.39-8.43-48.8-8.43
			c-16.61,0-33.12,2.83-48.76,8.34c-28.42,10.01-54,28.87-72.21,55.72l-17.23,25.4l-8.12,11.97l-58.05,85.59l-39.52,58.26
			l-26.66,39.3l-66.17,97.56l-4.73,6.97l-61.45,90.59l-36.11,53.24l-30.07,44.33l-66.17,97.56l-1.32,1.95l-64.85,95.61l-32.71,48.22
			l-33.47,49.34l-64.09,94.49"/>
		<polyline class="st1" points="2828.77,677.36 2766.03,584.87 2731.21,533.53 2699.85,487.3 2633.68,389.74 		"/>
		<path class="st1" d="M3305.72,3616.25v0.01c-15.7,38.53-47.33,68.87-86.71,82.84c-11.07,3.93-22.74,6.56-34.85,7.72
			c-4.66,0.45-9.38,0.68-14.16,0.68s-9.5-0.23-14.16-0.68H829.5v-0.32c-17.38,0-34.05-3.04-49.51-8.61
			c-41.05-14.8-73.57-47.47-88.15-88.63h-2.61l-6.8-35.24l-12.03-62.32l-18.82-97.57l-37.66-195.12l-7.22-37.43l-11.6-60.13
			l-10.23-52.99l-8.6-44.57l-18.83-97.56l-18.82-97.56l-18.83-97.56l-18.83-97.56l-13.66-70.79l-5.17-26.77l-18.82-97.57
			l-18.83-97.56h2508.69"/>
		<path class="st1" d="M2995.83,2340.96c71.08-10.33,125.67-71.51,125.67-145.46c0-81.19-65.81-147-147-147v-0.22H292.18V1755.6
			h3414.64v292.68H3560.5v0.22c-17.12,0-33.54,2.94-48.8,8.35c-13.69,4.86-26.44,11.69-37.91,20.17
			c-23.22,17.18-41.18,41.08-50.99,68.82c-5.37,15.22-8.3,31.6-8.3,48.66v0.5c0.06,16.97,3.01,33.26,8.39,48.4
			c14.69,41.33,47.47,74.09,88.81,88.75c3.93,1.39,7.95,2.62,12.03,3.68c9.1,2.36,18.54,3.87,28.23,4.42l-0.14,0.71l-11.1,57.52
			l-7.73,40.04l-11.1,57.52l-7.73,40.05l-2.46,12.78l-8.63,44.74l-5.17,26.77l-2.56,13.27l-11.1,57.52l-7.73,40.04l-11.1,57.52
			l-7.73,40.04l-11.1,57.52l-7.72,40.04l-11.1,57.52l-7.73,40.04l-5.9,30.58l-5.2,26.94l-7.73,40.04l-0.87,4.53l-10.23,52.99
			l-0.23,1.19l-7.49,38.85l-3.88,20.09l-7.22,37.43l-7.73,40.04l-18.83,97.56l-11.1,57.52l-7.73,40.05l-9.32,48.34l-0.07,0.38v0.07
			l-1.7,8.73l-7.73,40.04"/>
		<path class="st1" d="M392.69,3613.62l-0.85-4.36h0.34C392.34,3610.72,392.51,3612.17,392.69,3613.62z"/>
		<path class="st1" d="M2995.83,2340.96c-6.96,1.02-14.08,1.54-21.33,1.54s-14.37-0.52-21.33-1.54H2995.83z"/>
		<line class="st1" x1="3560.5" y1="2394.5" x2="3560.5" y2="2340.96"/>
		<line class="st1" x1="3853.5" y1="2318.73" x2="3853.5" y2="2244"/>
		<path class="st1" d="M3307.07,3609.26h1.3c-0.83,2.36-1.71,4.69-2.65,6.99L3307.07,3609.26z"/>
		<line class="st1" x1="829.5" y1="3712.5" x2="829.5" y2="3706.82"/>
		<path class="st1" d="M1225.6,2633.65c14.74,0.65,28.9,3.48,42.19,8.17c20.83,7.36,39.5,19.29,54.8,34.59
			c15.3,15.3,27.23,33.97,34.59,54.8c4.69,13.29,7.52,27.45,8.17,42.19"/>
		<path class="st1" d="M1072.67,2772.93c0.69-14.57,3.51-28.57,8.15-41.72c14.71-41.67,47.74-74.69,89.41-89.4
			c13.28-4.68,27.44-7.51,42.17-8.16"/>
		<path class="st1" d="M1208.59,3414.13c-13.36-0.93-26.23-3.66-38.36-7.94c-41.74-14.73-74.82-47.85-89.49-89.62
			c-4.59-13.08-7.38-27.02-8.07-41.5"/>
		<path class="st1" d="M1365.35,3274.6c-0.65,14.65-3.45,28.74-8.09,41.97c-14.67,41.76-47.74,74.88-89.47,89.61
			c-8.29,2.92-16.91,5.13-25.8,6.52c-4.14,0.66-8.33,1.14-12.58,1.43"/>
		<path class="st1" d="M1072.67,3275.07c-0.11-2.34-0.17-4.7-0.17-7.07v-488c0-2.37,0.06-4.73,0.17-7.07V3275.07z"/>
		<path class="st1" d="M1225.6,2633.65h-13.2c2.19-0.1,4.39-0.15,6.6-0.15S1223.41,2633.55,1225.6,2633.65z"/>
		<path class="st1" d="M1208.59,3414.13h20.82c-3.44,0.25-6.91,0.37-10.41,0.37S1212.03,3414.38,1208.59,3414.13z"/>
		<path class="st1" d="M1365.35,2773.4c0.1,2.19,0.15,4.39,0.15,6.6v488c0,2.21-0.05,4.41-0.15,6.6V2773.4z"/>
		<path class="st1" d="M2810.35,2633.65c6.3,1.32,12.45,3.06,18.42,5.16c20.84,7.36,39.51,19.29,54.82,34.6
			c16.03,16.03,28.36,35.76,35.61,57.8c4.04,12.27,6.49,25.25,7.13,38.72"/>
		<path class="st1" d="M2633.65,2770.4c0.6-13.63,3.07-26.78,7.15-39.19c14.16-43.08,47.76-77.33,90.41-92.39
			c5.98-2.11,12.14-3.84,18.44-5.17"/>
		<path class="st1" d="M2926.33,3272.07c-0.74,15.6-3.92,30.56-9.17,44.5c-15.17,40.36-47.65,72.24-88.39,86.62
			c-15.26,5.38-31.67,8.31-48.77,8.31c-7.47,0-14.81-0.56-21.97-1.64c-9.25-1.39-18.22-3.64-26.82-6.68
			c-40.73-14.38-73.2-46.26-88.37-86.61c-5.3-14.08-8.49-29.2-9.19-44.97"/>
		<path class="st1" d="M2633.65,3271.6c-0.1-2.19-0.15-4.39-0.15-6.6v-488c0-2.21,0.05-4.41,0.15-6.6V3271.6z"/>
		<path class="st1" d="M2749.65,2633.65c9.79-2.07,19.94-3.15,30.35-3.15s20.56,1.08,30.35,3.15H2749.65z"/>
		<path class="st1" d="M2926.33,2769.93c0.11,2.34,0.17,4.7,0.17,7.07v488c0,2.37-0.06,4.73-0.17,7.07V2769.93z"/>
		<path class="st1" d="M2048.28,3404.36c-15.12,5.27-31.36,8.14-48.28,8.14c-17.08,0-33.48-2.92-48.72-8.29
			c-0.19-0.07-0.38-0.13-0.56-0.2c-40.5-14.46-72.77-46.26-87.88-86.44c-0.12-0.33-0.25-0.66-0.37-1
			c-4.92-13.36-7.95-27.64-8.75-42.52v-504.1c0.71-13.11,3.14-25.77,7.08-37.74c0.11-0.34,0.22-0.67,0.34-1
			c14.29-42.44,47.49-76.19,89.58-91.22c0.18-0.07,0.37-0.13,0.56-0.2c5.96-2.09,12.09-3.82,18.37-5.14h60.7
			c5.7,1.2,11.28,2.73,16.72,4.58c0.59,0.19,1.18,0.39,1.77,0.6c20.81,7.36,39.46,19.29,54.75,34.58
			c16.03,16.03,28.36,35.76,35.61,57.8c4.21,12.79,6.7,26.36,7.2,40.44v498.7c-0.58,16.22-3.8,31.77-9.24,46.22
			c-15.03,39.97-47.04,71.63-87.23,86.2"/>
		<path class="st1" d="M2049.93,3403.77c-0.36,0.14-0.73,0.27-1.09,0.4c-0.19,0.07-0.37,0.13-0.56,0.19v-1.15
			C2048.83,3403.4,2049.38,3403.59,2049.93,3403.77z"/>
		<polygon class="st1" points="2633.68,389.74 2633.65,389.74 2633.65,389.7 		"/>
		<polygon class="st1" points="2832.21,682.43 2828.77,682.43 2828.77,677.36 		"/>
		<polygon class="st1" points="779.99,1259.7 779.99,1267.79 774.5,1267.79 		"/>
		<polygon class="st1" points="975.11,972.04 975.11,975.11 973.03,975.11 		"/>
	</g>
</g>
</svg>
