<?xml version="1.0" encoding="utf-8"?>
<!-- Generator: Adobe Illustrator 26.3.1, SVG Export Plug-In . SVG Version: 6.00 Build 0)  -->
<svg version="1.1" id="Слой_1" xmlns="http://www.w3.org/2000/svg" xmlns:xlink="http://www.w3.org/1999/xlink" x="0px" y="0px"
	 viewBox="0 0 1920 1920" style="enable-background:new 0 0 1920 1920;" xml:space="preserve">
<style type="text/css">
	.st0{fill:#5A5A5A;}
</style>
<g>
	<path class="st0" d="M1683.92,567.63v1271.28h-0.52v0.09c0,45.12-38.12,81.73-85.26,81.99v0.51H320.89v-0.51
		c-47.17-0.22-85.33-36.84-85.33-81.99c0-3.07,0.18-6.09,0.52-9.07V577.07c-0.35-2.98-0.52-6-0.52-9.07c0-45.29,38.4-82,85.78-82
		c47.11,0,85.34,36.29,85.77,81.22h0.53V1757.5h1104.71V577.07c-0.35-2.98-0.52-6-0.52-9.07c0-45.29,38.4-82,85.78-82
		c47.25,0,85.57,36.51,85.77,81.63H1683.92z"/>
</g>
<path class="st0" d="M1914.4,433.94L1914.4,433.94c-16.69,41.79-65.67,62.74-109.39,46.78L990.22,183.37
	c-19.46-7.1-40.98-7.1-60.45,0L114.99,480.73c-43.72,15.96-92.7-4.99-109.39-46.78l0,0c-16.69-41.79,5.22-88.61,48.94-104.56
	L929.78,9.96c19.46-7.1,40.98-7.1,60.45,0l875.24,319.42C1909.18,345.34,1931.1,392.15,1914.4,433.94z"/>
</svg>
