<?xml version="1.0" encoding="utf-8"?>
<!-- Generator: Adobe Illustrator 26.3.1, SVG Export Plug-In . SVG Version: 6.00 Build 0)  -->
<svg version="1.1" id="Слой_1" xmlns="http://www.w3.org/2000/svg" xmlns:xlink="http://www.w3.org/1999/xlink" x="0px" y="0px"
	 viewBox="0 0 4000 4000" style="enable-background:new 0 0 4000 4000;" xml:space="preserve">
<style type="text/css">
	.st0{fill:#606060;}
	.st1{fill:#FFFFFF;}
	.st2{fill:none;stroke:#000000;stroke-miterlimit:10;}
</style>
<g id="XMLID_00000096042608778784492490000013639192806854391179_">
	<g>
		<path class="st0" d="M3991.15,1267.79c5.41,15.23,8.35,31.63,8.35,48.71c0,17.13-2.96,33.58-8.4,48.85
			c-14.73,41.36-47.65,74.15-89.16,88.81c-15.3,5.4-31.78,8.34-48.94,8.34c-17.04,0-33.4-2.9-48.62-8.23
			c-7.53-2.64-14.78-5.88-21.69-9.65l-0.03-0.02l-18.52-12.01l-57.32-37.16l-46.4-30.08l-51.16-33.17l-97.56-63.25v-1.14h-1.76
			l-95.81-62.12l-54.67-35.44l-42.89-27.81l-97.56-63.25l-10.03-6.5l-87.53-56.75l-62.95-40.81l-34.61-22.44l-97.56-63.25
			l-18.31-11.87l-79.25-51.38l-50.27-32.59l-20.97-13.59l-26.32-17.07l-97.56-63.25l-26.6-17.24l-70.96-46.01l-79.52-51.55
			l-18.05-11.7l-97.56-63.25l-34.89-22.62l-62.67-40.63l-87.81-56.93l-9.75-6.32l-36.52-23.68c-7.12-6.27-15.15-11.5-23.88-15.48
			h-0.01c-11.38-5.2-23.93-8.27-37.15-8.7c-1.09-0.04-2.18-0.06-3.28-0.06c-13.56,0-26.48,2.77-38.21,7.77
			c-0.01,0.01-0.02,0.01-0.03,0.02c-8.96,3.82-17.24,8.95-24.58,15.16h-0.01l-31.45,19.4l-19.29,11.89L1853.16,438l-79.95,49.3
			l-17.61,10.86l-97.56,60.15l-43.07,26.56l-54.49,33.6l-97.57,60.16l-6.16,3.8l-91.4,56.36l-66.82,41.2l-30.74,18.95l-48.29,29.78
			l-49.27,30.38l-29.93,18.45l-67.63,41.7l-90.59,55.86h-6.97v4.3l-97.56,60.15l-53.69,33.11l-43.87,27.05l-97.56,60.16
			l-16.79,10.35l-80.77,49.8l-77.46,47.76l-20.11,12.4l-97.56,60.16l-40.55,25l-57.01,35.15l-63.82,39.35l-0.77-1.15
			c-10.16,6.82-21.22,12.41-32.97,16.54c-11.23,3.95-23.09,6.57-35.39,7.67h-26.46c-12.41-1.11-24.38-3.77-35.71-7.78
			c-41.74-14.79-74.78-47.96-89.4-89.78c-5.28-15.14-8.16-31.41-8.16-48.35c0-17.26,2.99-33.83,8.47-49.21
			c10.65-29.88,30.74-55.29,56.67-72.64l-0.22-0.34l32.64-20.09l7.29-4.49l90.27-55.57l68.21-41.99l29.35-18.07l97.56-60.05
			l31.58-19.44l65.98-40.62l92.5-56.94h5.07v-3.12l97.56-60.06l55.86-34.38l41.7-25.67l97.56-60.06l19.22-11.83l78.34-48.23
			l80.14-49.33l17.42-10.72l97.56-60.06l43.52-26.79l54.04-33.26l97.56-60.06l6.89-4.24l90.67-55.82l67.81-41.74l29.76-18.32
			l97.56-60.05l31.17-19.19l66.39-40.87l18.46-11.36l73.63-45.33h5.47v-3.37l97.56-60.05v2.82C1976.59,13.47,2010.66-0.5,2048-0.5
			h0.28c24.71,0.05,47.97,6.21,68.37,17.05l0.02,0.01l21.28,13.8l0.06,0.04c2.69,2.1,5.3,4.29,7.83,6.57v-1.48l94.92,61.57
			l2.64,1.71l77.93,50.56l19.63,12.73l50.2,32.56l47.36,30.72l97.57,63.3v3.54h5.46l92.1,59.74l58.3,37.82l39.26,25.47l97.56,63.28
			l13.58,8.81l83.98,54.48l66.43,43.09l31.13,20.2l97.56,63.28l21.7,14.08l75.86,49.21l74.54,48.35l23.02,14.93l97.56,63.29
			l29.82,19.34l67.75,43.95l82.64,53.61l14.92,9.68l97.56,63.28l37.92,24.6l59.64,38.69l90.75,58.87l6.81,4.41v4.2
			c6.98,2.47,13.72,5.45,20.17,8.9l0.02,0.01l0.05,0.03l20.73,13.44C3964.8,1218.2,3981.72,1241.23,3991.15,1267.79z"/>
		<path class="st1" d="M3942.91,1201.22l-20.73-13.44C3929.48,1191.68,3936.41,1196.18,3942.91,1201.22z"/>
		<path class="st1" d="M3901.94,1174.64l20.17,13.1c-6.45-3.45-13.19-6.43-20.17-8.9V1174.64z"/>
		<path class="st1" d="M3764.14,1432.59l18.52,12.01C3776.17,1441.06,3769.98,1437.04,3764.14,1432.59z"/>
		<path class="st0" d="M633.5,3999.5c-17.05,0-33.42-2.93-48.63-8.32c-41.46-14.7-74.34-47.65-89.03-89.24
			c-5.35-15.15-8.28-31.46-8.34-48.44h-0.2v-2245h0.2c0.06-16.83,2.95-32.98,8.22-48.02c14.63-41.67,47.56-74.74,89.15-89.54
			c12.07-4.29,24.86-7.05,38.15-8.03h21.96c13.03,0.96,25.59,3.63,37.45,7.78c41.92,14.68,75.14,47.88,89.85,89.79
			c4.03,11.5,6.67,23.65,7.71,36.26v24.52v1988h0.51c0.14,53.58,43.49,97,97.05,97.23v0.33h2232.44c3.76,0.45,7.58,0.68,11.46,0.68
			h0.05c3.89,0,7.74-0.23,11.51-0.68c45.49-5.31,81.47-41.8,86-87.53c0.33-3.22,0.49-6.49,0.49-9.79v-0.24
			c-0.01-3.22-0.17-6.41-0.49-9.55V1608.5h0.5c0.11-16.84,3.07-33,8.42-48.02c14.7-41.23,47.4-73.91,88.64-88.58
			c15.29-5.44,31.77-8.4,48.93-8.4c17.05,0,33.42,2.92,48.63,8.29c41.38,14.62,74.21,47.36,88.94,88.69
			c5.35,15.02,8.31,31.18,8.42,48.02h0.21v2244h-0.21c0.01,0.33,0.01,0.67,0.01,1c0,16.98-2.9,33.28-8.22,48.44
			c-14.63,41.6-47.58,74.58-89.15,89.27c-15.21,5.37-31.58,8.29-48.63,8.29H633.5z"/>
		<polygon class="st1" points="3511.7,1267.79 3511.7,1268.93 3509.94,1267.79 		"/>
		<path class="st1" d="M3219.5,3609.26v0.24c0,3.3-0.16,6.57-0.49,9.79v-10.03v-9.55
			C3219.33,3602.85,3219.49,3606.04,3219.5,3609.26z"/>
		<path class="st1" d="M3121.45,3706.82h11.56c-3.77,0.45-7.62,0.68-11.51,0.68h-0.05c-3.88,0-7.7-0.23-11.46-0.68H3121.45z"/>
		<path class="st0" d="M2924.5,1219.5c0,0.33,0,0.67-0.01,1c-0.1,16.52-2.95,32.39-8.12,47.17c-0.01,0.04-0.03,0.08-0.04,0.12
			c-14.41,41.12-46.71,73.84-87.56,88.82c-13.03,4.78-26.93,7.76-41.4,8.62H1210.1c-13.9-0.83-27.28-3.6-39.87-8.04
			c-41.67-14.71-74.7-47.74-89.42-89.4c-0.01-0.04-0.03-0.08-0.04-0.12c-4.61-13.11-7.41-27.08-8.1-41.6v-14.14
			c0.69-14.56,3.5-28.56,8.14-41.7c0.01-0.04,0.03-0.08,0.04-0.12c6.41-18.1,16.27-34.57,28.8-48.61
			c16.28-18.24,37.05-32.38,60.58-40.69c14.13-4.98,29.25-7.86,44.99-8.26H2778.5v0.95c17.67,0,34.6,3.14,50.27,8.89
			c22.62,8.29,42.62,22.02,58.4,39.61c12.48,13.88,22.33,30.18,28.76,48.11c0.01,0.04,0.03,0.08,0.04,0.12
			C2921.5,1185.62,2924.5,1202.2,2924.5,1219.5z"/>
		<path class="st0" d="M2633.65,1902.5v487h-0.15v0.5c0,17.01-2.9,33.33-8.22,48.52c-14.63,41.69-47.58,74.76-89.19,89.55
			c-12.05,4.29-24.83,7.04-38.11,8.02h-21.96c-13.05-0.96-25.62-3.64-37.5-7.8c-41.9-14.69-75.1-47.88-89.8-89.77
			c-4.1-11.69-6.76-24.05-7.76-36.88v-23.28v-330.08h-138.44h-16.04h-81.43h-16.1c-14.19-0.77-27.84-3.55-40.67-8.07
			c-41.72-14.71-74.78-47.77-89.49-89.49c-4.52-12.83-7.3-26.48-8.07-40.67v-16.1c0.77-14.23,3.57-27.92,8.11-40.79
			c14.73-41.66,47.77-74.67,89.45-89.37c13.64-4.8,28.21-7.65,43.37-8.19h10.7h385.15v0.91c17.05,0.11,33.41,3.14,48.59,8.63
			c40.82,14.74,73.19,47.16,87.86,88.02c5.54,15.41,8.55,32.02,8.55,49.34H2633.65z"/>
		<path class="st0" d="M2633.5,2974.5v0.5c0,17.14-2.94,33.6-8.35,48.89c-14.7,41.51-47.57,74.43-89.06,89.18
			c-14.22,5.06-29.45,7.98-45.31,8.38h-7.56h-967.44h-7.56c-15.86-0.4-31.09-3.32-45.31-8.38c-41.49-14.75-74.36-47.67-89.06-89.18
			c-5.41-15.29-8.35-31.75-8.35-48.89v-0.5h-0.15v-1072h0.15v-0.5c0-17.13,2.94-33.56,8.33-48.84
			c14.69-41.54,47.58-74.48,89.08-89.23c13.75-4.89,28.44-7.78,43.74-8.33h10.7c15.07,0.54,29.56,3.35,43.13,8.11
			c41.79,14.65,74.93,47.71,89.69,89.45c4.16,11.78,6.86,24.25,7.87,37.2v23.28v915.13h820.06h17.8
			c14.02,0.84,27.51,3.65,40.19,8.16c41.56,14.77,74.48,47.78,89.14,89.4C2630.53,2941.41,2633.44,2957.62,2633.5,2974.5z"/>
		<polygon class="st1" points="2541.55,292.18 2536.09,292.18 2536.09,288.64 		"/>
		<path class="st1" d="M2476.02,2536.09h21.96c-3.46,0.26-6.95,0.4-10.48,0.41h-0.5C2483.31,2536.5,2479.64,2536.36,2476.02,2536.09
			z"/>
		<path class="st1" d="M2495.9,2828.77h-17.8c2.94-0.18,5.91-0.27,8.9-0.27h0.5C2490.32,2828.51,2493.12,2828.6,2495.9,2828.77z"/>
		<path class="st1" d="M2483.22,3121.45h7.56c-1.09,0.03-2.18,0.05-3.28,0.05h-0.5C2485.74,3121.5,2484.48,3121.48,2483.22,3121.45z
			"/>
		<path class="st1" d="M2340.96,2378.36v23.28c-0.31-3.84-0.46-7.72-0.46-11.64v-0.5
			C2340.51,2385.75,2340.67,2382.03,2340.96,2378.36z"/>
		<path class="st1" d="M2186.48,2048.28h16.04c-2.65,0.15-5.33,0.22-8.02,0.22S2189.13,2048.43,2186.48,2048.28z"/>
		<path class="st1" d="M2155.59,389.74h-9.75h-13.44h-84.12h-90.67h-6.89h-19.29l19.29-11.89l31.45-19.4h0.01l24.58-15.16
			c0.01-0.01,0.02-0.01,0.03-0.02c11.73-5,24.65-7.77,38.21-7.77c1.1,0,2.19,0.02,3.28,0.06c13.22,0.43,25.77,3.5,37.15,8.7h0.01
			l23.88,15.48l36.52,23.68L2155.59,389.74z"/>
		<path class="st1" d="M2145.84,35.49v1.48c-2.53-2.28-5.14-4.47-7.83-6.57L2145.84,35.49z"/>
		<path class="st1" d="M2137.95,30.36l-21.28-13.8C2124.18,20.55,2131.29,25.17,2137.95,30.36z"/>
		<path class="st1" d="M2109.32,359.74l-23.88-15.48C2094.17,348.24,2102.2,353.47,2109.32,359.74z"/>
		<path class="st1" d="M2088.95,2048.28h16.1c-2.66,0.15-5.35,0.22-8.05,0.22h-0.5C2093.97,2048.49,2091.45,2048.42,2088.95,2048.28
			z"/>
		<path class="st1" d="M2102.35,1755.6h-10.7c1.61-0.06,3.22-0.09,4.85-0.1h0.5C2098.79,1755.5,2100.58,1755.53,2102.35,1755.6z"/>
		<path class="st1" d="M2006.76,343.29l-24.58,15.16C1989.52,352.24,1997.8,347.11,2006.76,343.29z"/>
		<path class="st1" d="M1950.72,1893.95v16.1c-0.14-2.5-0.21-5.02-0.22-7.55v-0.5C1950.5,1899.3,1950.57,1896.61,1950.72,1893.95z"
			/>
		<polygon class="st1" points="1853.16,93.69 1853.16,97.06 1847.69,97.06 		"/>
		<path class="st1" d="M1658.5,1902v0.5c-0.01,3.75-0.17,7.47-0.46,11.14v-23.28C1658.35,1894.2,1658.5,1898.08,1658.5,1902z"/>
		<path class="st1" d="M1517.35,1755.6h-10.7c1.77-0.07,3.56-0.1,5.35-0.1h0.5C1514.13,1755.51,1515.74,1755.54,1517.35,1755.6z"/>
		<path class="st1" d="M1508.22,3121.45h7.56c-1.09,0.03-2.18,0.05-3.28,0.05h-0.5C1510.74,3121.5,1509.48,3121.48,1508.22,3121.45z
			"/>
		<polygon class="st1" points="982.08,975.11 975.11,979.41 975.11,975.11 		"/>
		<path class="st1" d="M780.5,1608.5v0.5c0,4.13-0.17,8.22-0.51,12.26v-24.52C780.32,1600.62,780.49,1604.54,780.5,1608.5z"/>
		<path class="st1" d="M644.98,1462.91h-21.96c3.62-0.27,7.29-0.41,10.98-0.41S641.36,1462.64,644.98,1462.91z"/>
		<polygon class="st1" points="584.87,874.43 584.87,877.55 579.8,877.55 		"/>
		<path class="st1" d="M132.77,1462.91h26.46c-4.36,0.39-8.77,0.59-13.23,0.59S137.13,1463.3,132.77,1462.91z"/>
	</g>
	<g>
		<polyline class="st2" points="1658.04,1913.64 1658.04,2828.77 2478.1,2828.77 		"/>
		<path class="st2" d="M1517.35,1755.6c15.07,0.54,29.56,3.35,43.13,8.11c41.79,14.65,74.93,47.71,89.69,89.45
			c4.16,11.78,6.86,24.25,7.87,37.2"/>
		<path class="st2" d="M1508.22,3121.45c-15.86-0.4-31.09-3.32-45.31-8.38c-41.49-14.75-74.36-47.67-89.06-89.18
			c-5.41-15.29-8.35-31.75-8.35-48.89v-0.5h-0.15v-1072h0.15v-0.5c0-17.13,2.94-33.56,8.33-48.84
			c14.69-41.54,47.58-74.48,89.08-89.23c13.75-4.89,28.44-7.78,43.74-8.33"/>
		<line class="st2" x1="2483.22" y1="3121.45" x2="1515.78" y2="3121.45"/>
		<path class="st2" d="M2495.9,2828.77c14.02,0.84,27.51,3.65,40.19,8.16c41.56,14.77,74.48,47.78,89.14,89.4
			c5.3,15.08,8.21,31.29,8.27,48.17v0.5c0,17.14-2.94,33.6-8.35,48.89c-14.7,41.51-47.57,74.43-89.06,89.18
			c-14.22,5.06-29.45,7.98-45.31,8.38"/>
		<line class="st2" x1="584.87" y1="3999.5" x2="584.87" y2="3991.18"/>
		<path class="st2" d="M2116.67,16.56c7.51,3.99,14.62,8.61,21.28,13.8"/>
		<path class="st2" d="M159.23,1462.91c-4.36,0.39-8.77,0.59-13.23,0.59s-8.87-0.2-13.23-0.59"/>
		<path class="st2" d="M3782.66,1444.6c-6.49-3.54-12.68-7.56-18.52-12.01"/>
		<path class="st2" d="M3922.18,1187.78c7.3,3.9,14.23,8.4,20.73,13.44"/>
		<path class="st2" d="M779.99,1621.26v1988h0.51c0.14,53.58,43.49,97,97.05,97.23v0.33h2232.44c3.76,0.45,7.58,0.68,11.46,0.68
			h0.05c3.89,0,7.74-0.23,11.51-0.68c45.49-5.31,81.47-41.8,86-87.53c0.33-3.22,0.49-6.49,0.49-9.79v-0.24
			c-0.01-3.22-0.17-6.41-0.49-9.55V1608.5h0.5c0.11-16.84,3.07-33,8.42-48.02c14.7-41.23,47.4-73.91,88.64-88.58
			c15.29-5.44,31.77-8.4,48.93-8.4c17.05,0,33.42,2.92,48.63,8.29c41.38,14.62,74.21,47.36,88.94,88.69
			c5.35,15.02,8.31,31.18,8.42,48.02h0.21v2244h-0.21c0.01,0.33,0.01,0.67,0.01,1c0,16.98-2.9,33.28-8.22,48.44
			c-14.63,41.6-47.58,74.58-89.15,89.27c-15.21,5.37-31.58,8.29-48.63,8.29h-2732c-17.05,0-33.42-2.93-48.63-8.32
			c-41.46-14.7-74.34-47.65-89.03-89.24c-5.35-15.15-8.28-31.46-8.34-48.44h-0.2v-2245h0.2c0.06-16.83,2.95-32.98,8.22-48.02
			c14.63-41.67,47.56-74.74,89.15-89.54c12.07-4.29,24.86-7.05,38.15-8.03"/>
		<path class="st2" d="M644.98,1462.91c13.03,0.96,25.59,3.63,37.45,7.78c41.92,14.68,75.14,47.88,89.85,89.79
			c4.03,11.5,6.67,23.65,7.71,36.26"/>
		<path class="st2" d="M644.98,1462.91h-21.96c3.62-0.27,7.29-0.41,10.98-0.41S641.36,1462.64,644.98,1462.91z"/>
		<path class="st2" d="M779.99,1596.74c0.33,3.88,0.5,7.8,0.51,11.76v0.5c0,4.13-0.17,8.22-0.51,12.26V1596.74z"/>
		<path class="st2" d="M1515.78,3121.45c-1.09,0.03-2.18,0.05-3.28,0.05h-0.5c-1.26,0-2.52-0.02-3.78-0.05H1515.78z"/>
		<path class="st2" d="M2490.78,3121.45c-1.09,0.03-2.18,0.05-3.28,0.05h-0.5c-1.26,0-2.52-0.02-3.78-0.05H2490.78z"/>
		<path class="st2" d="M2495.9,2828.77h-17.8c2.94-0.18,5.91-0.27,8.9-0.27h0.5C2490.32,2828.51,2493.12,2828.6,2495.9,2828.77z"/>
		<path class="st2" d="M1517.35,1755.6h-10.7c1.77-0.07,3.56-0.1,5.35-0.1h0.5C1514.13,1755.51,1515.74,1755.54,1517.35,1755.6z"/>
		<path class="st2" d="M1658.04,1890.36c0.31,3.84,0.46,7.72,0.46,11.64v0.5c-0.01,3.75-0.17,7.47-0.46,11.14V1890.36z"/>
		<path class="st2" d="M2202.52,2048.28c-2.65,0.15-5.33,0.22-8.02,0.22s-5.37-0.07-8.02-0.22"/>
		<path class="st2" d="M2340.96,2401.64c-0.31-3.84-0.46-7.72-0.46-11.64v-0.5c0.01-3.75,0.17-7.47,0.46-11.14"/>
		<path class="st2" d="M2497.98,2536.09c-3.46,0.26-6.95,0.4-10.48,0.41h-0.5c-3.69,0-7.36-0.14-10.98-0.41"/>
		<line class="st2" x1="584.87" y1="874.43" x2="579.8" y2="877.55"/>
		<line class="st2" x1="1853.16" y1="93.69" x2="1847.69" y2="97.06"/>
		<line class="st2" x1="982.08" y1="975.11" x2="975.11" y2="979.41"/>
		<line class="st2" x1="3922.11" y1="1187.74" x2="3901.94" y2="1174.64"/>
		<line class="st2" x1="2541.55" y1="292.18" x2="2536.09" y2="288.64"/>
		<line class="st2" x1="2145.84" y1="35.49" x2="2138.01" y2="30.4"/>
		<path class="st2" d="M3942.91,1201.22c21.89,16.98,38.81,40.01,48.24,66.57c5.41,15.23,8.35,31.63,8.35,48.71
			c0,17.13-2.96,33.58-8.4,48.85c-14.73,41.36-47.65,74.15-89.16,88.81c-15.3,5.4-31.78,8.34-48.94,8.34
			c-17.04,0-33.4-2.9-48.62-8.23c-7.53-2.64-14.78-5.88-21.69-9.65l-0.03-0.02l-18.52-12.01l-57.32-37.16l-46.4-30.08l-51.16-33.17
			l-97.56-63.25v-1.14h-1.76l-95.81-62.12l-54.67-35.44l-42.89-27.81l-97.56-63.25l-10.03-6.5l-87.53-56.75l-62.95-40.81
			l-34.61-22.44l-97.56-63.25l-18.31-11.87l-79.25-51.38l-50.27-32.59l-20.97-13.59l-26.32-17.07l-97.56-63.25l-26.6-17.24
			l-70.96-46.01l-79.52-51.55l-18.05-11.7l-97.56-63.25l-34.89-22.62l-62.67-40.63l-87.81-56.93l-9.75-6.32l-36.52-23.68
			c-7.12-6.27-15.15-11.5-23.88-15.48h-0.01c-11.38-5.2-23.93-8.27-37.15-8.7c-1.09-0.04-2.18-0.06-3.28-0.06
			c-13.56,0-26.48,2.77-38.21,7.77c-0.01,0.01-0.02,0.01-0.03,0.02c-8.96,3.82-17.24,8.95-24.58,15.16h-0.01l-31.45,19.4
			l-19.29,11.89L1853.16,438l-79.95,49.3l-17.61,10.86l-97.56,60.15l-43.07,26.56l-54.49,33.6l-97.57,60.16l-6.16,3.8l-91.4,56.36
			l-66.82,41.2l-30.74,18.95l-48.29,29.78l-49.27,30.38l-29.93,18.45l-67.63,41.7l-90.59,55.86h-6.97v4.3l-97.56,60.15l-53.69,33.11
			l-43.87,27.05l-97.56,60.16l-16.79,10.35l-80.77,49.8l-77.46,47.76l-20.11,12.4l-97.56,60.16l-40.55,25l-57.01,35.15l-63.82,39.35
			l-0.77-1.15c-10.16,6.82-21.22,12.41-32.97,16.54c-11.23,3.95-23.09,6.57-35.39,7.67h-26.46c-12.41-1.11-24.38-3.77-35.71-7.78
			c-41.74-14.79-74.78-47.96-89.4-89.78c-5.28-15.14-8.16-31.41-8.16-48.35c0-17.26,2.99-33.83,8.47-49.21
			c10.65-29.88,30.74-55.29,56.67-72.64l-0.22-0.34l32.64-20.09l7.29-4.49l90.27-55.57l68.21-41.99l29.35-18.07l97.56-60.05
			l31.58-19.44l65.98-40.62l92.5-56.94h5.07v-3.12l97.56-60.06l55.86-34.38l41.7-25.67l97.56-60.06l19.22-11.83l78.34-48.23
			l80.14-49.33l17.42-10.72l97.56-60.06l43.52-26.79l54.04-33.26l97.56-60.06l6.89-4.24l90.67-55.82l67.81-41.74l29.76-18.32
			l97.56-60.05l31.17-19.19l66.39-40.87l18.46-11.36l73.63-45.33h5.47v-3.37l97.56-60.05v2.82C1976.59,13.47,2010.66-0.5,2048-0.5
			h0.28c24.71,0.05,47.97,6.21,68.37,17.05l0.02,0.01l21.28,13.8l0.06,0.04c2.69,2.1,5.3,4.29,7.83,6.57v-1.48l94.92,61.57
			l2.64,1.71l77.93,50.56l19.63,12.73l50.2,32.56l47.36,30.72l97.57,63.3v3.54h5.46l92.1,59.74l58.3,37.82l39.26,25.47l97.56,63.28
			l13.58,8.81l83.98,54.48l66.43,43.09l31.13,20.2l97.56,63.28l21.7,14.08l75.86,49.21l74.54,48.35l23.02,14.93l97.56,63.29
			l29.82,19.34l67.75,43.95l82.64,53.61l14.92,9.68l97.56,63.28l37.92,24.6l59.64,38.69l90.75,58.87l6.81,4.41v4.2
			c6.98,2.47,13.72,5.45,20.17,8.9l0.02,0.01l0.05,0.03L3942.91,1201.22z"/>
		<path class="st2" d="M2924.5,1219.5c0,0.33,0,0.67-0.01,1c-0.1,16.52-2.95,32.39-8.12,47.17c-0.01,0.04-0.03,0.08-0.04,0.12
			c-14.41,41.12-46.71,73.84-87.56,88.82c-13.03,4.78-26.93,7.76-41.4,8.62H1210.1c-13.9-0.83-27.28-3.6-39.87-8.04
			c-41.67-14.71-74.7-47.74-89.42-89.4c-0.01-0.04-0.03-0.08-0.04-0.12c-4.61-13.11-7.41-27.08-8.1-41.6v-14.14
			c0.69-14.56,3.5-28.56,8.14-41.7c0.01-0.04,0.03-0.08,0.04-0.12c6.41-18.1,16.27-34.57,28.8-48.61
			c16.28-18.24,37.05-32.38,60.58-40.69c14.13-4.98,29.25-7.86,44.99-8.26H2778.5v0.95c17.67,0,34.6,3.14,50.27,8.89
			c22.62,8.29,42.62,22.02,58.4,39.61c12.48,13.88,22.33,30.18,28.76,48.11c0.01,0.04,0.03,0.08,0.04,0.12
			C2921.5,1185.62,2924.5,1202.2,2924.5,1219.5z"/>
		<line class="st2" x1="3511.7" y1="1268.93" x2="3509.94" y2="1267.79"/>
		<line class="st2" x1="550.5" y1="3853.5" x2="487.5" y2="3853.5"/>
		<line class="st2" x1="3511.49" y1="3852.5" x2="3431.5" y2="3852.5"/>
		<path class="st2" d="M1950.72,1893.95c0.77-14.23,3.57-27.92,8.11-40.79c14.73-41.66,47.77-74.67,89.45-89.37
			c13.64-4.8,28.21-7.65,43.37-8.19"/>
		<path class="st2" d="M2088.95,2048.28c-14.19-0.77-27.84-3.55-40.67-8.07c-41.72-14.71-74.78-47.77-89.49-89.49
			c-4.52-12.83-7.3-26.48-8.07-40.67"/>
		<path class="st2" d="M2102.35,1755.6h385.15v0.91c17.05,0.11,33.41,3.14,48.59,8.63c40.82,14.74,73.19,47.16,87.86,88.02
			c5.54,15.41,8.55,32.02,8.55,49.34h1.15v487h-0.15v0.5c0,17.01-2.9,33.33-8.22,48.52c-14.63,41.69-47.58,74.76-89.19,89.55
			c-12.05,4.29-24.83,7.04-38.11,8.02h-21.96c-13.05-0.96-25.62-3.64-37.5-7.8c-41.9-14.69-75.1-47.88-89.8-89.77
			c-4.1-11.69-6.76-24.05-7.76-36.88v-23.28v-330.08h-138.44h-16.04h-81.43"/>
		<path class="st2" d="M1950.72,1893.95v16.1c-0.14-2.5-0.21-5.02-0.22-7.55v-0.5C1950.5,1899.3,1950.57,1896.61,1950.72,1893.95z"
			/>
		<path class="st2" d="M2105.05,2048.28c-2.66,0.15-5.35,0.22-8.05,0.22h-0.5c-2.53-0.01-5.05-0.08-7.55-0.22H2105.05z"/>
		<path class="st2" d="M2102.35,1755.6h-10.7c1.61-0.06,3.22-0.09,4.85-0.1h0.5C2098.79,1755.5,2100.58,1755.53,2102.35,1755.6z"/>
		<line class="st2" x1="1219.5" y1="779.99" x2="1219.5" y2="735.5"/>
		<line class="st2" x1="2778.5" y1="779.99" x2="2778.5" y2="724.5"/>
	</g>
</g>
</svg>
