<?xml version="1.0" encoding="utf-8"?>
<!-- Generator: Adobe Illustrator 26.3.1, SVG Export Plug-In . SVG Version: 6.00 Build 0)  -->
<svg version="1.1" id="Слой_1" xmlns="http://www.w3.org/2000/svg" xmlns:xlink="http://www.w3.org/1999/xlink" x="0px" y="0px"
	 viewBox="0 0 4000 4000" style="enable-background:new 0 0 4000 4000;" xml:space="preserve">
<style type="text/css">
	.st0{fill:#FFFFFF;}
	.st1{fill:none;stroke:#000000;stroke-miterlimit:10;}
</style>
<g id="XMLID_00000096042608778784492490000013639192806854391179_">
	<g>
		<path class="st0" d="M3999.5,1316.5c0.08,7.06-0.33,26.19-8.4,48.85c-14.73,41.36-47.65,74.15-89.16,88.81
			c-15.3,5.4-31.78,8.34-48.94,8.34c-17.04,0-33.4-2.9-48.62-8.23c-7.53-2.64-14.78-5.88-21.69-9.65l-0.03-0.02l-18.52-12.01
			L2109.32,359.74c-7.12-6.27-15.15-11.5-23.88-15.48h-0.01c-11.38-5.2-23.93-8.27-37.15-8.7c-1.09-0.04-2.18-0.06-3.28-0.06
			c-13.56,0-26.48,2.77-38.21,7.77c-0.01,0.01-0.02,0.01-0.03,0.02c-8.96,3.82-17.24,8.95-24.58,15.16h-0.01
			c-91.08,56.16-571.88,352.62-1007.06,620.96c-391.87,241.62-746.75,460.44-746.75,460.44l-0.77-1.15
			c-10.16,6.82-21.22,12.41-32.97,16.54c-11.23,3.95-23.09,6.57-35.39,7.67h-26.46c-12.41-1.11-24.38-3.77-35.71-7.78
			c-41.74-14.79-74.78-47.96-89.4-89.78c-5.28-15.14-8.16-31.41-8.16-48.35c0-17.26,2.99-33.83,8.47-49.21
			c10.65-29.88,30.74-55.29,56.67-72.64l-0.22-0.34l32.64-20.09l7.29-4.49L579.8,877.55l5.07-3.12L1847.69,97.06l5.47-3.37
			l97.56-60.05c0,0,59.94-34.14,97.28-34.14h0.28c24.71,0.05,47.97,6.21,68.37,17.05l0.02,0.01l21.28,13.8l0.06,0.04l0.05,0.03
			c0.05,0.04,0.17,0.12,0.34,0.23l0.2,0.13c0.14,0.1,0.31,0.21,0.51,0.33c45.9,30.09,1511.19,980.34,1766.16,1145.69l12.16,7.89
			l2.69,1.74l1.99,1.3c0.02,0.01,0.05,0.02,0.07,0.04l20.71,13.43l0.02,0.01C3953.85,1210.97,3998.78,1253.19,3999.5,1316.5z"/>
		<path class="st0" d="M3942.89,1201.21l-20.71-13.43C3929.47,1191.68,3936.4,1196.17,3942.89,1201.21z"/>
		<path class="st0" d="M3920.12,1186.44l-2.69-1.74C3918.35,1185.3,3919.25,1185.88,3920.12,1186.44z"/>
		<path class="st0" d="M3764.14,1432.59l18.52,12.01C3776.17,1441.06,3769.98,1437.04,3764.14,1432.59z"/>
		<path class="st0" d="M487.5,3853.5h-0.2v-2245h0.2c0.06-16.83,2.95-32.98,8.22-48.02c14.63-41.67,47.56-74.74,89.15-89.54
			c12.07-4.29,24.86-7.05,38.15-8.03h21.96c13.03,0.96,25.59,3.63,37.45,7.78c41.92,14.68,75.14,47.88,89.85,89.79
			c4.03,11.5,6.67,23.65,7.71,36.26v24.52v1988h0.51c0.14,53.58,43.49,97,97.05,97.23v0.33h2232.44c3.76,0.45,7.58,0.68,11.46,0.68
			h0.05c3.89,0,7.74-0.23,11.51-0.68c45.49-5.31,81.47-41.8,86-87.53c0.33-3.22,0.49-6.49,0.49-9.79v-0.24
			c-0.01-3.22-0.17-6.41-0.49-9.55V1608.5h0.5c0.11-16.84,3.07-33,8.42-48.02c14.7-41.23,47.4-73.91,88.64-88.58
			c15.29-5.44,31.77-8.4,48.93-8.4c17.05,0,33.42,2.92,48.63,8.29c41.38,14.62,74.21,47.36,88.94,88.69
			c5.35,15.02,8.31,31.18,8.42,48.02h0.21v2244h-0.21c0.01,0.33,0.01,0.67,0.01,1c0,16.98-2.9,33.28-8.22,48.44
			c-14.63,41.6-47.58,74.58-89.15,89.27c-15.21,5.37-31.58,8.29-48.63,8.29h-2732c-17.05,0-33.42-2.93-48.63-8.32
			c-41.46-14.7-74.34-47.65-89.03-89.24C490.49,3886.79,487.56,3870.48,487.5,3853.5z"/>
		<path class="st0" d="M3219.5,3609.26v0.24c0,3.3-0.16,6.57-0.49,9.79v-10.03v-9.55
			C3219.33,3602.85,3219.49,3606.04,3219.5,3609.26z"/>
		<path class="st0" d="M3121.45,3706.82h11.56c-3.77,0.45-7.62,0.68-11.51,0.68h-0.05c-3.88,0-7.7-0.23-11.46-0.68H3121.45z"/>
		<path class="st0" d="M2924.5,1219.5c0,0.33,0,0.67-0.01,1c-0.1,16.52-2.95,32.39-8.12,47.17c-0.01,0.04-0.03,0.08-0.04,0.12
			c-14.41,41.12-46.71,73.84-87.56,88.82c-13.03,4.78-26.93,7.76-41.4,8.62H1210.1c-13.9-0.83-27.28-3.6-39.87-8.04
			c-41.67-14.71-74.7-47.74-89.42-89.4c-0.01-0.04-0.03-0.08-0.04-0.12c-4.61-13.11-7.41-27.08-8.1-41.6v-14.14
			c0.69-14.56,3.5-28.56,8.14-41.7c0.01-0.04,0.03-0.08,0.04-0.12c6.41-18.1,16.27-34.57,28.8-48.61
			c16.28-18.24,37.05-32.38,60.58-40.69c14.13-4.98,29.25-7.86,44.99-8.26H2778.5v0.95c17.67,0,34.6,3.14,50.27,8.89
			c22.62,8.29,42.62,22.02,58.4,39.61c12.48,13.88,22.33,30.18,28.76,48.11c0.01,0.04,0.03,0.08,0.04,0.12
			C2921.5,1185.62,2924.5,1202.2,2924.5,1219.5z"/>
		<path class="st0" d="M2633.65,1902.5v487h-0.15v0.5c0,17.01-2.9,33.33-8.22,48.52c-14.63,41.69-47.58,74.76-89.19,89.55
			c-12.05,4.29-24.83,7.04-38.11,8.02h-21.96c-13.05-0.96-25.62-3.64-37.5-7.8c-41.9-14.69-75.1-47.88-89.8-89.77
			c-4.1-11.69-6.76-24.05-7.76-36.88v-23.28v-330.08h-138.44h-16.04h-81.43h-16.1c-14.19-0.77-27.84-3.55-40.67-8.07
			c-41.72-14.71-74.78-47.77-89.49-89.49c-4.52-12.83-7.3-26.48-8.07-40.67v-16.1c0.77-14.23,3.57-27.92,8.11-40.79
			c14.73-41.66,47.77-74.67,89.45-89.37c13.64-4.8,28.21-7.65,43.37-8.19h10.7h385.15v0.91c17.05,0.11,33.41,3.14,48.59,8.63
			c40.82,14.74,73.19,47.16,87.86,88.02c5.54,15.41,8.55,32.02,8.55,49.34H2633.65z"/>
		<path class="st0" d="M2633.5,2974.5v0.5c0,17.14-2.94,33.6-8.35,48.89c-14.7,41.51-47.57,74.43-89.06,89.18
			c-14.22,5.06-29.45,7.98-45.31,8.38h-7.56h-967.44h-7.56c-15.86-0.4-31.09-3.32-45.31-8.38c-41.49-14.75-74.36-47.67-89.06-89.18
			c-5.41-15.29-8.35-31.75-8.35-48.89v-0.5h-0.15v-1072h0.15v-0.5c0-17.13,2.94-33.56,8.33-48.84
			c14.69-41.54,47.58-74.48,89.08-89.23c13.75-4.89,28.44-7.78,43.74-8.33h10.7c15.07,0.54,29.56,3.35,43.13,8.11
			c41.79,14.65,74.93,47.71,89.69,89.45c4.16,11.78,6.86,24.25,7.87,37.2v23.28v915.13h820.06h17.8
			c14.02,0.84,27.51,3.65,40.19,8.16c41.56,14.77,74.48,47.78,89.14,89.4C2630.53,2941.41,2633.44,2957.62,2633.5,2974.5z"/>
		<path class="st0" d="M2476.02,2536.09h21.96c-3.46,0.26-6.95,0.4-10.48,0.41h-0.5C2483.31,2536.5,2479.64,2536.36,2476.02,2536.09
			z"/>
		<path class="st0" d="M2495.9,2828.77h-17.8c2.94-0.18,5.91-0.27,8.9-0.27h0.5C2490.32,2828.51,2493.12,2828.6,2495.9,2828.77z"/>
		<path class="st0" d="M2483.22,3121.45h7.56c-1.09,0.03-2.18,0.05-3.28,0.05h-0.5C2485.74,3121.5,2484.48,3121.48,2483.22,3121.45z
			"/>
		<path class="st0" d="M2340.96,2378.36v23.28c-0.31-3.84-0.46-7.72-0.46-11.64v-0.5
			C2340.51,2385.75,2340.67,2382.03,2340.96,2378.36z"/>
		<path class="st0" d="M2186.48,2048.28h16.04c-2.65,0.15-5.33,0.22-8.02,0.22S2189.13,2048.43,2186.48,2048.28z"/>
		<path class="st0" d="M2138.6,30.79l0.51,0.33C2138.91,31,2138.74,30.89,2138.6,30.79z"/>
		<path class="st0" d="M2138.06,30.43l0.34,0.23C2138.23,30.55,2138.11,30.47,2138.06,30.43z"/>
		<path class="st0" d="M2137.95,30.36l-21.28-13.8C2124.18,20.55,2131.29,25.17,2137.95,30.36z"/>
		<path class="st0" d="M2088.95,2048.28h16.1c-2.66,0.15-5.35,0.22-8.05,0.22h-0.5C2093.97,2048.49,2091.45,2048.42,2088.95,2048.28
			z"/>
		<path class="st0" d="M2102.35,1755.6h-10.7c1.61-0.06,3.22-0.09,4.85-0.1h0.5C2098.79,1755.5,2100.58,1755.53,2102.35,1755.6z"/>
		<path class="st0" d="M2006.76,343.29l-24.58,15.16C1989.52,352.24,1997.8,347.11,2006.76,343.29z"/>
		<path class="st0" d="M1950.72,1893.95v16.1c-0.14-2.5-0.21-5.02-0.22-7.55v-0.5C1950.5,1899.3,1950.57,1896.61,1950.72,1893.95z"
			/>
		<path class="st0" d="M1658.5,1902v0.5c-0.01,3.75-0.17,7.47-0.46,11.14v-23.28C1658.35,1894.2,1658.5,1898.08,1658.5,1902z"/>
		<path class="st0" d="M1517.35,1755.6h-10.7c1.77-0.07,3.56-0.1,5.35-0.1h0.5C1514.13,1755.51,1515.74,1755.54,1517.35,1755.6z"/>
		<path class="st0" d="M1508.22,3121.45h7.56c-1.09,0.03-2.18,0.05-3.28,0.05h-0.5C1510.74,3121.5,1509.48,3121.48,1508.22,3121.45z
			"/>
		<path class="st0" d="M780.5,1608.5v0.5c0,4.13-0.17,8.22-0.51,12.26v-24.52C780.32,1600.62,780.49,1604.54,780.5,1608.5z"/>
		<path class="st0" d="M644.98,1462.91h-21.96c3.62-0.27,7.29-0.41,10.98-0.41S641.36,1462.64,644.98,1462.91z"/>
		<path class="st0" d="M132.77,1462.91h26.46c-4.36,0.39-8.77,0.59-13.23,0.59S137.13,1463.3,132.77,1462.91z"/>
	</g>
	<g>
		<polyline class="st1" points="1658.04,1913.64 1658.04,2828.77 2478.1,2828.77 		"/>
		<path class="st1" d="M1517.35,1755.6c15.07,0.54,29.56,3.35,43.13,8.11c41.79,14.65,74.93,47.71,89.69,89.45
			c4.16,11.78,6.86,24.25,7.87,37.2"/>
		<path class="st1" d="M1508.22,3121.45c-15.86-0.4-31.09-3.32-45.31-8.38c-41.49-14.75-74.36-47.67-89.06-89.18
			c-5.41-15.29-8.35-31.75-8.35-48.89v-0.5h-0.15v-1072h0.15v-0.5c0-17.13,2.94-33.56,8.33-48.84
			c14.69-41.54,47.58-74.48,89.08-89.23c13.75-4.89,28.44-7.78,43.74-8.33"/>
		<line class="st1" x1="2483.22" y1="3121.45" x2="1515.78" y2="3121.45"/>
		<path class="st1" d="M2495.9,2828.77c14.02,0.84,27.51,3.65,40.19,8.16c41.56,14.77,74.48,47.78,89.14,89.4
			c5.3,15.08,8.21,31.29,8.27,48.17v0.5c0,17.14-2.94,33.6-8.35,48.89c-14.7,41.51-47.57,74.43-89.06,89.18
			c-14.22,5.06-29.45,7.98-45.31,8.38"/>
		<line class="st1" x1="584.87" y1="3999.5" x2="584.87" y2="3991.18"/>
		<path class="st1" d="M2116.67,16.56c7.51,3.99,14.62,8.61,21.28,13.8"/>
		<path class="st1" d="M159.23,1462.91c-4.36,0.39-8.77,0.59-13.23,0.59s-8.87-0.2-13.23-0.59"/>
		<path class="st1" d="M3782.66,1444.6c-6.49-3.54-12.68-7.56-18.52-12.01"/>
		<path class="st1" d="M3922.18,1187.78c7.29,3.9,14.22,8.39,20.71,13.43"/>
		<path class="st1" d="M779.99,1621.26v1988h0.51c0.14,53.58,43.49,97,97.05,97.23v0.33h2232.44c3.76,0.45,7.58,0.68,11.46,0.68
			h0.05c3.89,0,7.74-0.23,11.51-0.68c45.49-5.31,81.47-41.8,86-87.53c0.33-3.22,0.49-6.49,0.49-9.79v-0.24
			c-0.01-3.22-0.17-6.41-0.49-9.55V1608.5h0.5c0.11-16.84,3.07-33,8.42-48.02c14.7-41.23,47.4-73.91,88.64-88.58
			c15.29-5.44,31.77-8.4,48.93-8.4c17.05,0,33.42,2.92,48.63,8.29c41.38,14.62,74.21,47.36,88.94,88.69
			c5.35,15.02,8.31,31.18,8.42,48.02h0.21v2244h-0.21c0.01,0.33,0.01,0.67,0.01,1c0,16.98-2.9,33.28-8.22,48.44
			c-14.63,41.6-47.58,74.58-89.15,89.27c-15.21,5.37-31.58,8.29-48.63,8.29h-2732c-17.05,0-33.42-2.93-48.63-8.32
			c-41.46-14.7-74.34-47.65-89.03-89.24c-5.35-15.15-8.28-31.46-8.34-48.44h-0.2v-2245h0.2c0.06-16.83,2.95-32.98,8.22-48.02
			c14.63-41.67,47.56-74.74,89.15-89.54c12.07-4.29,24.86-7.05,38.15-8.03"/>
		<path class="st1" d="M644.98,1462.91c13.03,0.96,25.59,3.63,37.45,7.78c41.92,14.68,75.14,47.88,89.85,89.79
			c4.03,11.5,6.67,23.65,7.71,36.26"/>
		<path class="st1" d="M644.98,1462.91h-21.96c3.62-0.27,7.29-0.41,10.98-0.41S641.36,1462.64,644.98,1462.91z"/>
		<path class="st1" d="M779.99,1596.74c0.33,3.88,0.5,7.8,0.51,11.76v0.5c0,4.13-0.17,8.22-0.51,12.26V1596.74z"/>
		<path class="st1" d="M1515.78,3121.45c-1.09,0.03-2.18,0.05-3.28,0.05h-0.5c-1.26,0-2.52-0.02-3.78-0.05H1515.78z"/>
		<path class="st1" d="M2490.78,3121.45c-1.09,0.03-2.18,0.05-3.28,0.05h-0.5c-1.26,0-2.52-0.02-3.78-0.05H2490.78z"/>
		<path class="st1" d="M2495.9,2828.77h-17.8c2.94-0.18,5.91-0.27,8.9-0.27h0.5C2490.32,2828.51,2493.12,2828.6,2495.9,2828.77z"/>
		<path class="st1" d="M1517.35,1755.6h-10.7c1.77-0.07,3.56-0.1,5.35-0.1h0.5C1514.13,1755.51,1515.74,1755.54,1517.35,1755.6z"/>
		<path class="st1" d="M1658.04,1890.36c0.31,3.84,0.46,7.72,0.46,11.64v0.5c-0.01,3.75-0.17,7.47-0.46,11.14V1890.36z"/>
		<path class="st1" d="M2202.52,2048.28c-2.65,0.15-5.33,0.22-8.02,0.22s-5.37-0.07-8.02-0.22"/>
		<path class="st1" d="M2340.96,2401.64c-0.31-3.84-0.46-7.72-0.46-11.64v-0.5c0.01-3.75,0.17-7.47,0.46-11.14"/>
		<path class="st1" d="M2497.98,2536.09c-3.46,0.26-6.95,0.4-10.48,0.41h-0.5c-3.69,0-7.36-0.14-10.98-0.41"/>
		<line class="st1" x1="982.08" y1="975.11" x2="975.11" y2="979.41"/>
		<line class="st1" x1="3905.27" y1="1176.81" x2="3901.94" y2="1174.64"/>
		<line class="st1" x1="3920.12" y1="1186.44" x2="3917.43" y2="1184.7"/>
		<line class="st1" x1="2541.55" y1="292.18" x2="2536.09" y2="288.64"/>
		<line class="st1" x1="2138.4" y1="30.66" x2="2138.06" y2="30.43"/>
		<polyline class="st1" points="2145.84,35.49 2139.11,31.12 2138.6,30.79 		"/>
		<path class="st1" d="M3942.89,1201.21l0.02,0.01c10.94,9.75,55.87,51.97,56.59,115.28c0.08,7.06-0.33,26.19-8.4,48.85
			c-14.73,41.36-47.65,74.15-89.16,88.81c-15.3,5.4-31.78,8.34-48.94,8.34c-17.04,0-33.4-2.9-48.62-8.23
			c-7.53-2.64-14.78-5.88-21.69-9.65l-0.03-0.02l-18.52-12.01L2109.32,359.74c-7.12-6.27-15.15-11.5-23.88-15.48h-0.01
			c-11.38-5.2-23.93-8.27-37.15-8.7c-1.09-0.04-2.18-0.06-3.28-0.06c-13.56,0-26.48,2.77-38.21,7.77c-0.01,0.01-0.02,0.01-0.03,0.02
			c-8.96,3.82-17.24,8.95-24.58,15.16h-0.01c-91.08,56.16-571.88,352.62-1007.06,620.96c-391.87,241.62-746.75,460.44-746.75,460.44
			l-0.77-1.15c-10.16,6.82-21.22,12.41-32.97,16.54c-11.23,3.95-23.09,6.57-35.39,7.67h-26.46c-12.41-1.11-24.38-3.77-35.71-7.78
			c-41.74-14.79-74.78-47.96-89.4-89.78c-5.28-15.14-8.16-31.41-8.16-48.35c0-17.26,2.99-33.83,8.47-49.21
			c10.65-29.88,30.74-55.29,56.67-72.64l-0.22-0.34l32.64-20.09l7.29-4.49L579.8,877.55l5.07-3.12L1847.69,97.06l5.47-3.37
			l97.56-60.05c0,0,59.94-34.14,97.28-34.14h0.28c24.71,0.05,47.97,6.21,68.37,17.05l0.02,0.01l21.28,13.8l0.06,0.04l0.05,0.03
			c0.05,0.04,0.17,0.12,0.34,0.23l0.2,0.13c0.14,0.1,0.31,0.21,0.51,0.33c45.9,30.09,1511.19,980.34,1766.16,1145.69l12.16,7.89
			c0.92,0.6,1.82,1.18,2.69,1.74l1.99,1.3c0.02,0.01,0.05,0.02,0.07,0.04L3942.89,1201.21z"/>
		<path class="st1" d="M2924.5,1219.5c0,0.33,0,0.67-0.01,1c-0.1,16.52-2.95,32.39-8.12,47.17c-0.01,0.04-0.03,0.08-0.04,0.12
			c-14.41,41.12-46.71,73.84-87.56,88.82c-13.03,4.78-26.93,7.76-41.4,8.62H1210.1c-13.9-0.83-27.28-3.6-39.87-8.04
			c-41.67-14.71-74.7-47.74-89.42-89.4c-0.01-0.04-0.03-0.08-0.04-0.12c-4.61-13.11-7.41-27.08-8.1-41.6v-14.14
			c0.69-14.56,3.5-28.56,8.14-41.7c0.01-0.04,0.03-0.08,0.04-0.12c6.41-18.1,16.27-34.57,28.8-48.61
			c16.28-18.24,37.05-32.38,60.58-40.69c14.13-4.98,29.25-7.86,44.99-8.26H2778.5v0.95c17.67,0,34.6,3.14,50.27,8.89
			c22.62,8.29,42.62,22.02,58.4,39.61c12.48,13.88,22.33,30.18,28.76,48.11c0.01,0.04,0.03,0.08,0.04,0.12
			C2921.5,1185.62,2924.5,1202.2,2924.5,1219.5z"/>
		<line class="st1" x1="550.5" y1="3853.5" x2="487.5" y2="3853.5"/>
		<line class="st1" x1="3511.49" y1="3852.5" x2="3431.5" y2="3852.5"/>
		<path class="st1" d="M1950.72,1893.95c0.77-14.23,3.57-27.92,8.11-40.79c14.73-41.66,47.77-74.67,89.45-89.37
			c13.64-4.8,28.21-7.65,43.37-8.19"/>
		<path class="st1" d="M2088.95,2048.28c-14.19-0.77-27.84-3.55-40.67-8.07c-41.72-14.71-74.78-47.77-89.49-89.49
			c-4.52-12.83-7.3-26.48-8.07-40.67"/>
		<path class="st1" d="M2102.35,1755.6h385.15v0.91c17.05,0.11,33.41,3.14,48.59,8.63c40.82,14.74,73.19,47.16,87.86,88.02
			c5.54,15.41,8.55,32.02,8.55,49.34h1.15v487h-0.15v0.5c0,17.01-2.9,33.33-8.22,48.52c-14.63,41.69-47.58,74.76-89.19,89.55
			c-12.05,4.29-24.83,7.04-38.11,8.02h-21.96c-13.05-0.96-25.62-3.64-37.5-7.8c-41.9-14.69-75.1-47.88-89.8-89.77
			c-4.1-11.69-6.76-24.05-7.76-36.88v-23.28v-330.08h-138.44h-16.04h-81.43"/>
		<path class="st1" d="M1950.72,1893.95v16.1c-0.14-2.5-0.21-5.02-0.22-7.55v-0.5C1950.5,1899.3,1950.57,1896.61,1950.72,1893.95z"
			/>
		<path class="st1" d="M2105.05,2048.28c-2.66,0.15-5.35,0.22-8.05,0.22h-0.5c-2.53-0.01-5.05-0.08-7.55-0.22H2105.05z"/>
		<path class="st1" d="M2102.35,1755.6h-10.7c1.61-0.06,3.22-0.09,4.85-0.1h0.5C2098.79,1755.5,2100.58,1755.53,2102.35,1755.6z"/>
	</g>
</g>
</svg>
