<?xml version="1.0" encoding="utf-8"?>
<!-- Generator: Adobe Illustrator 26.3.1, SVG Export Plug-In . SVG Version: 6.00 Build 0)  -->
<svg version="1.1" id="Слой_1" xmlns="http://www.w3.org/2000/svg" xmlns:xlink="http://www.w3.org/1999/xlink" x="0px" y="0px"
	 viewBox="0 0 4000 4000" style="enable-background:new 0 0 4000 4000;" xml:space="preserve">
<style type="text/css">
	.st0{fill:#606060;}
	.st1{fill:none;stroke:#000000;stroke-miterlimit:10;}
</style>
<g id="XMLID_00000111902924298214686810000011171791397284294328_">
	<g>
		<path class="st0" d="M309.22,3511.7c12.84,36.25,32.62,69.22,57.76,97.29c0.08,0.09,0.16,0.18,0.25,0.27
			c7.08,7.91,14.6,15.43,22.51,22.52c28.13,25.25,61.19,45.12,97.56,58c30.51,10.82,63.35,16.71,97.57,16.72H585
			c34.16,0,66.96-5.86,97.43-16.62c36.36-12.84,69.42-32.66,97.56-57.86c8.01-7.16,15.62-14.76,22.79-22.76
			c0.08-0.09,0.16-0.18,0.24-0.27c25.14-28.07,44.92-61.04,57.76-97.29c0.04-0.09,0.07-0.18,0.1-0.27
			c10.75-30.43,16.61-63.19,16.62-97.3v-0.26c-0.01-34.12-5.87-66.87-16.63-97.3c-0.03-0.09-0.06-0.18-0.09-0.27
			c-12.84-36.25-32.62-69.22-57.76-97.29c-0.08-0.09-0.16-0.18-0.24-0.27c-7.17-8-14.78-15.6-22.79-22.76
			c-28.14-25.2-61.2-45.02-97.56-57.86c-30.47-10.76-63.27-16.62-97.43-16.62h-0.13c-34.22,0.01-67.06,5.9-97.57,16.72
			c-36.37,12.88-69.43,32.75-97.56,58c-7.91,7.09-15.43,14.61-22.52,22.52c-0.08,0.09-0.16,0.18-0.24,0.27
			c-25.14,28.07-44.92,61.04-57.76,97.29c-0.03,0.09-0.06,0.18-0.09,0.27c-10.76,30.43-16.62,63.18-16.63,97.3v0.26
			c0.01,34.11,5.87,66.87,16.62,97.3C309.15,3511.52,309.18,3511.61,309.22,3511.7z M1170.23,3414.13v31.92
			c-1.17,22.24-3.59,44.14-7.18,65.65c-0.01,0.11-0.03,0.22-0.05,0.33c-5.6,33.45-14.04,65.95-25.07,97.23
			c-0.03,0.11-0.07,0.22-0.11,0.33c-12,33.96-27.02,66.48-44.78,97.23c-0.06,0.11-0.13,0.22-0.19,0.33
			c-6.2,10.75-12.75,21.28-19.61,31.57c-0.19,0.28-0.38,0.57-0.57,0.85c-15.23,22.79-32.01,44.44-50.21,64.81
			c-0.09,0.11-0.19,0.22-0.29,0.33c-14.61,16.35-30.14,31.88-46.49,46.49l-0.57,0.51c-20.41,18.21-42.1,35-64.93,50.23
			c-0.16,0.11-0.33,0.22-0.49,0.33c-10.29,6.86-20.82,13.41-31.57,19.61l-0.57,0.33c-30.68,17.7-63.12,32.67-96.99,44.64
			c-0.19,0.07-0.38,0.13-0.57,0.2c-31.2,10.98-63.62,19.39-96.99,24.98c-0.19,0.03-0.38,0.06-0.57,0.09
			c-23,3.83-46.45,6.32-70.27,7.38h-53.21c-24.1-1.07-47.83-3.6-71.08-7.52c-0.19-0.03-0.38-0.06-0.57-0.1
			c-33.38-5.63-65.79-14.09-96.99-25.13c-0.19-0.07-0.38-0.13-0.57-0.21c-33.87-12.01-66.31-27.06-96.99-44.82l-0.57-0.33
			c-10.45-6.05-20.7-12.43-30.73-19.12c-0.16-0.11-0.33-0.22-0.49-0.33c-23.14-15.43-45.12-32.48-65.77-50.98l-0.57-0.51
			c-16.05-14.39-31.29-29.67-45.65-45.74c-0.1-0.11-0.2-0.22-0.29-0.33c-18.54-20.74-35.61-42.82-51.05-66.07
			c-0.19-0.29-0.38-0.57-0.57-0.86c-6.56-9.89-12.82-20-18.77-30.3c-0.06-0.11-0.13-0.22-0.19-0.33
			c-17.76-30.75-32.78-63.27-44.78-97.23c-0.04-0.11-0.08-0.22-0.11-0.33c-11.03-31.28-19.47-63.78-25.07-97.23
			c-0.02-0.11-0.04-0.22-0.05-0.33c-5.28-31.59-8.02-64.03-8.02-97.1v-0.47c0.03-33.12,2.8-65.61,8.12-97.23
			c0.02-0.11,0.04-0.22,0.06-0.33c5.63-33.46,14.11-65.95,25.17-97.23c0.04-0.11,0.08-0.22,0.12-0.33
			c12.03-33.96,27.11-66.48,44.91-97.23c0.06-0.11,0.13-0.22,0.19-0.33c5.84-10.1,11.99-20,18.42-29.7
			c0.19-0.29,0.38-0.57,0.57-0.86c15.59-23.47,32.84-45.75,51.58-66.67c0.1-0.11,0.2-0.22,0.3-0.33
			c14.2-15.86,29.26-30.93,45.11-45.14c0.19-0.17,0.38-0.34,0.57-0.51c20.92-18.74,43.2-35.99,66.67-51.58
			c0.17-0.11,0.33-0.22,0.5-0.33c9.74-6.47,19.68-12.65,29.82-18.52c0.19-0.11,0.38-0.22,0.57-0.33
			c30.68-17.76,63.12-32.81,96.99-44.82c0.19-0.08,0.38-0.14,0.57-0.21c31.2-11.04,63.61-19.5,96.99-25.13
			c0.19-0.04,0.38-0.07,0.57-0.1c31.55-5.31,63.96-8.08,97-8.12h0.7c32.99,0,65.35,2.73,96.86,7.98c0.19,0.03,0.38,0.06,0.57,0.09
			c33.37,5.59,65.79,14,96.99,24.98c0.19,0.07,0.38,0.13,0.57,0.2c33.87,11.97,66.31,26.94,96.99,44.64
			c0.19,0.11,0.38,0.22,0.57,0.33c10.43,6.02,20.65,12.36,30.66,19.01c0.17,0.11,0.33,0.22,0.5,0.33
			c23.16,15.38,45.16,32.38,65.83,50.83c0.19,0.17,0.38,0.34,0.57,0.51c16.15,14.43,31.5,29.75,45.95,45.89
			c0.1,0.11,0.2,0.22,0.3,0.33c18.4,20.55,35.37,42.4,50.74,65.41c0.19,0.28,0.38,0.57,0.57,0.85c6.74,10.1,13.17,20.43,19.26,30.97
			c0.06,0.11,0.13,0.22,0.19,0.33c17.8,30.75,32.88,63.27,44.91,97.23c0.04,0.11,0.08,0.22,0.12,0.33
			c11.06,31.28,19.54,63.77,25.17,97.23c0.02,0.11,0.04,0.22,0.06,0.33c3.65,21.68,6.1,43.78,7.28,66.2V3414.13z"/>
		<path class="st0" d="M3999.5,3112.76v602.32c-0.88,31.19-6.63,61.15-16.54,89.17c-0.02,0.04-0.03,0.09-0.05,0.13
			c-12.83,36.3-32.62,69.3-57.76,97.43c-0.04,0.04-0.08,0.09-0.12,0.13c-7.22,8.08-14.89,15.76-22.97,22.98
			c-0.04,0.04-0.08,0.07-0.12,0.11c-28.12,25.18-61.13,45-97.44,57.86c-0.04,0.01-0.08,0.03-0.12,0.04
			c-26.8,9.49-55.38,15.18-85.11,16.44h-12.45h-97.56h-97.56h-97.57h-97.56h-97.56h-97.56h-97.56h-97.56h-97.56h-97.56h-97.56
			h-97.56h-97.57h-97.56h-97.56h-97.56h-97.56h-97.56h-97.56h-97.56h-97.56h-97.56h-12.51c-29.67-1.26-58.19-6.93-84.94-16.38
			c-0.04-0.01-0.08-0.03-0.12-0.04c-36.3-12.83-69.31-32.63-97.44-57.76c-0.04-0.04-0.08-0.07-0.12-0.11
			c-8.14-7.28-15.87-15-23.14-23.14c-0.04-0.04-0.08-0.09-0.12-0.13c-25.14-28.13-44.93-61.13-57.76-97.43
			c-0.02-0.04-0.03-0.09-0.05-0.13c-9.41-26.62-15.08-55-16.37-84.52v-611.18c1.3-29.57,6.98-58,16.41-84.66
			c0.02-0.04,0.03-0.09,0.05-0.13c12.86-36.3,32.68-69.31,57.85-97.43c0.04-0.04,0.08-0.09,0.12-0.13
			c7.23-8.09,14.91-15.76,23.01-23c0.04-0.04,0.08-0.07,0.12-0.11c28.13-25.13,61.14-44.93,97.44-57.76
			c0.04-0.01,0.08-0.03,0.12-0.04c27.9-9.85,57.74-15.61,88.79-16.52h1276.95h97.56h682.93h106.64
			c30.94,0.91,60.67,6.63,88.48,16.43c0.04,0.01,0.08,0.03,0.12,0.04c36.31,12.81,69.32,32.59,97.44,57.72
			c0.04,0.04,0.08,0.07,0.12,0.11c8.13,7.27,15.86,15,23.13,23.13c0.04,0.04,0.08,0.09,0.11,0.13
			c25.13,28.12,44.91,61.13,57.72,97.43c0.02,0.04,0.03,0.09,0.05,0.13C3992.91,3051.81,3998.63,3081.68,3999.5,3112.76z
			 M1560.62,3609.26c0.06,53.77,43.65,97.34,97.42,97.38v0.18h1951.22v-0.13h0.12v-0.05c53.69-0.14,97.17-43.67,97.24-97.38h0.2
			v-0.13h0.12v-390.25h-0.12h-0.2c-0.14-53.64-43.6-97.1-97.24-97.24v-0.19v-0.13h-975.73h-975.49v0.13h-0.12v0.19
			c-53.72,0.04-97.28,43.54-97.42,97.24h-0.02v0.13h-0.12v390.25H1560.62z"/>
		<path class="st0" d="M3804.38,1562.87c16.13,14.43,31.45,29.75,45.88,45.89c14.05,15.69,27.26,32.14,39.56,49.28
			c4.02,5.59,7.93,11.25,11.75,16.98c0.12,0.19,0.25,0.37,0.37,0.56c6.68,10.03,13.04,20.28,19.08,30.74
			c9.24,15.96,17.75,32.4,25.47,49.28c7.21,15.73,13.74,31.84,19.56,48.28c5.7,16.11,10.71,32.55,15,49.28
			c4.07,15.83,7.49,31.94,10.23,48.28c2.73,16.21,4.79,32.65,6.15,49.28c0.82,10.12,1.39,20.31,1.7,30.57v35.7
			c-0.32,10.5-0.91,20.93-1.77,31.29c-1.35,16.3-3.37,32.4-6.03,48.29c-2.79,16.68-6.28,33.11-10.46,49.27
			c-4.22,16.39-9.14,32.49-14.72,48.29c-5.93,16.79-12.6,33.23-19.98,49.27c-7.6,16.53-15.94,32.64-24.99,48.29
			c-6.09,10.56-12.51,20.9-19.24,31.01c-0.12,0.19-0.25,0.37-0.37,0.56c-3.98,5.98-8.07,11.88-12.26,17.7
			c-12.09,16.79-25.04,32.9-38.81,48.29c-14.5,16.23-29.9,31.64-46.12,46.16c-0.12,0.11-0.25,0.22-0.37,0.33
			c-1.04,0.93-2.08,1.86-3.13,2.78c-19.81,17.47-40.8,33.61-62.86,48.29c-10.17,6.78-20.58,13.26-31.2,19.39
			c-0.12,0.08-0.25,0.15-0.37,0.22c-18.93,10.95-38.54,20.86-58.74,29.67c-12.59,5.49-25.41,10.55-38.45,15.17
			c-0.12,0.04-0.25,0.09-0.37,0.13c-31.26,11.04-63.75,19.5-97.19,25.12c-0.12,0.02-0.25,0.04-0.37,0.06
			c-25.99,4.35-52.55,6.99-79.58,7.8h-35.7c-26.99-0.81-53.53-3.44-79.48-7.79c-0.12-0.02-0.25-0.04-0.37-0.06
			c-33.45-5.61-65.92-14.06-97.19-25.1c-0.12-0.04-0.25-0.09-0.37-0.13c-13.06-4.62-25.92-9.69-38.53-15.2
			c-20.17-8.79-39.75-18.69-58.66-29.62c-0.12-0.07-0.25-0.14-0.37-0.21c-10.65-6.15-21.09-12.64-31.3-19.45
			c-22.05-14.68-43.05-30.82-62.86-48.29c-1.01-0.89-2.02-1.79-3.03-2.69c-0.12-0.11-0.25-0.22-0.37-0.33
			c-16.26-14.54-31.69-29.99-46.22-46.25c-13.77-15.38-26.73-31.5-38.8-48.29c-4.17-5.77-8.22-11.62-12.17-17.56
			c-0.13-0.18-0.25-0.37-0.37-0.55c-6.77-10.17-13.22-20.56-19.34-31.16c-9.05-15.65-17.39-31.76-24.99-48.29
			c-7.38-16.04-14.05-32.48-19.98-49.27c-5.58-15.8-10.5-31.9-14.72-48.29c-4.18-16.16-7.67-32.59-10.46-49.27
			c-2.66-15.89-4.68-32-6.04-48.29c-0.78-9.37-1.33-18.81-1.66-28.3v-41.75c0.32-9.23,0.86-18.4,1.61-27.51
			c1.35-16.63,3.41-33.07,6.14-49.28c2.74-16.34,6.16-32.45,10.23-48.28c4.29-16.73,9.3-33.17,15-49.28
			c5.82-16.44,12.35-32.55,19.56-48.28c7.72-16.88,16.23-33.32,25.47-49.28c6.07-10.51,12.47-20.81,19.18-30.89
			c0.12-0.18,0.24-0.37,0.37-0.55c3.79-5.68,7.67-11.3,11.64-16.84c12.31-17.15,25.52-33.6,39.57-49.28
			c14.46-16.17,29.81-31.52,45.98-45.98c0.12-0.11,0.25-0.22,0.37-0.33c0.74-0.66,1.47-1.32,2.22-1.97
			c20.16-17.85,41.57-34.33,64.08-49.28c10.08-6.71,20.38-13.11,30.89-19.18c0.12-0.07,0.25-0.14,0.37-0.21
			c18.4-10.64,37.43-20.3,57.03-28.9c13.14-5.79,26.53-11.1,40.16-15.92c0.12-0.04,0.25-0.09,0.37-0.13
			c31.27-11.04,63.74-19.49,97.19-25.1c0.12-0.02,0.25-0.04,0.37-0.06c31.61-5.3,64.09-8.05,97.2-8.06h0.36
			c33.11,0.01,65.58,2.77,97.2,8.07c0.12,0.02,0.25,0.04,0.37,0.06c33.44,5.62,65.93,14.08,97.19,25.12
			c0.12,0.04,0.25,0.09,0.37,0.13c13.6,4.82,26.97,10.11,40.08,15.89c19.62,8.62,38.68,18.3,57.11,28.95
			c0.12,0.07,0.25,0.14,0.37,0.22c10.47,6.05,20.74,12.43,30.79,19.12c22.51,14.95,43.92,31.42,64.08,49.28
			c0.78,0.68,1.55,1.37,2.32,2.06C3804.13,1562.65,3804.26,1562.76,3804.38,1562.87z M3413.77,2291.64h0.36
			c34.08-0.03,66.8-5.88,97.2-16.62c0.12-0.04,0.25-0.09,0.37-0.13c22.45-7.96,43.63-18.58,63.17-31.49
			c11.99-7.91,23.36-16.69,34.02-26.24c0.12-0.11,0.25-0.22,0.37-0.34c7.97-7.14,15.53-14.71,22.66-22.69
			c13.26-14.81,25.04-30.99,35.08-48.29c9.06-15.57,16.7-32.05,22.78-49.27c5.49-15.53,9.7-31.67,12.5-48.29
			c2.72-15.98,4.12-32.39,4.12-49.14v-0.13c0-16.45-1.37-32.58-3.99-48.29c-2.82-16.96-7.11-33.44-12.73-49.28
			c-5.97-16.85-13.44-33-22.25-48.28c-10.21-17.68-22.2-34.19-35.75-49.28c-7.06-7.88-14.54-15.36-22.42-22.42
			c-0.12-0.12-0.25-0.23-0.37-0.34c-10.34-9.26-21.34-17.79-32.93-25.52c-19.84-13.23-41.39-24.1-64.26-32.21
			c-0.12-0.04-0.25-0.09-0.37-0.13c-30.4-10.74-63.12-16.59-97.2-16.62h-0.36c-34.08,0.01-66.8,5.85-97.2,16.59
			c-0.12,0.04-0.25,0.09-0.37,0.13c-22.9,8.11-44.48,18.99-64.35,32.24c-11.56,7.7-22.53,16.21-32.84,25.43
			c-0.12,0.11-0.25,0.22-0.37,0.33c-7.91,7.09-15.43,14.61-22.52,22.52c-13.55,15.09-25.54,31.6-35.75,49.28
			c-8.81,15.28-16.28,31.43-22.25,48.28c-5.62,15.84-9.91,32.32-12.72,49.28c-2.36,14.08-3.7,28.49-3.95,43.17
			c-0.03,1.7-0.05,3.41-0.05,5.12v0.13c0,1.71,0.01,3.41,0.05,5.11c0.25,14.98,1.63,29.68,4.07,44.03
			c2.8,16.62,7.01,32.76,12.5,48.29c6.08,17.22,13.72,33.7,22.78,49.27c10.04,17.3,21.82,33.48,35.08,48.29
			c7.16,8.01,14.76,15.62,22.76,22.79c0.12,0.11,0.25,0.22,0.37,0.33c10.63,9.51,21.97,18.25,33.92,26.15
			c19.57,12.93,40.79,23.56,63.27,31.52c0.12,0.04,0.25,0.09,0.37,0.13C3346.97,2285.79,3379.69,2291.63,3413.77,2291.64z"/>
		<path class="st0" d="M585,877.5c34.16,0,66.96-5.86,97.43-16.62c36.36-12.84,69.42-32.66,97.56-57.86
			c8.1-7.24,15.79-14.93,23.03-23.03c25.2-28.14,45.02-61.2,57.86-97.56c10.76-30.47,16.62-63.27,16.62-97.43v-0.13
			c-0.01-34.22-5.9-67.06-16.72-97.57c-12.88-36.37-32.75-69.43-58-97.56c-7.17-8-14.78-15.6-22.79-22.76
			c-28.14-25.2-61.2-45.02-97.56-57.86c-30.47-10.76-63.27-16.62-97.43-16.62h-0.13c-34.22,0.01-67.06,5.9-97.57,16.72
			c-36.37,12.88-69.43,32.75-97.56,58c-7.91,7.09-15.43,14.61-22.52,22.52c-25.25,28.13-45.12,61.19-58,97.56
			c-10.82,30.51-16.71,63.35-16.72,97.57V585c0,34.16,5.86,66.96,16.62,97.43c12.84,36.36,32.66,69.42,57.86,97.56
			c7.16,8.01,14.76,15.62,22.76,22.79c28.13,25.25,61.19,45.12,97.56,58c30.51,10.82,63.35,16.71,97.57,16.72H585z M1170.23,567.15
			v35.7c-0.81,27.03-3.45,53.59-7.8,79.58c-5.62,33.57-14.1,66.18-25.18,97.56c-12.04,34.08-27.13,66.71-44.97,97.56
			c-6.2,10.75-12.75,21.28-19.61,31.57c-15.46,23.22-32.53,45.27-51.07,65.99c-14.61,16.35-30.14,31.88-46.49,46.49
			c-20.72,18.54-42.77,35.61-65.99,51.07c-10.29,6.86-20.82,13.41-31.57,19.61c-30.85,17.84-63.48,32.93-97.56,44.97
			c-31.38,11.08-63.99,19.56-97.56,25.18c-25.99,4.35-52.55,6.99-79.58,7.8h-35.7c-27.12-0.81-53.78-3.46-79.85-7.85
			c-33.58-5.63-66.18-14.13-97.56-25.23c-34.08-12.05-66.71-27.17-97.56-45.03c-10.65-6.15-21.09-12.64-31.3-19.45
			c-23.32-15.52-45.46-32.68-66.26-51.31c-16.26-14.54-31.69-29.99-46.22-46.25c-18.65-20.84-35.82-43.03-51.34-66.4
			c-6.77-10.17-13.22-20.56-19.34-31.16C59.88,846.7,44.54,813.58,32.5,779.5C21.42,748.12,13.19,716,7.57,682.43
			C2.26,650.74-0.5,618.19-0.5,585v-0.13c0.01-33.24,2.78-65.84,8.12-97.57c5.63-33.58,14.13-66.18,25.23-97.56
			c12.05-34.08,27.17-66.71,45.03-97.56c6.07-10.51,12.47-20.81,19.18-30.89c15.59-23.47,32.84-45.75,51.58-66.67
			c14.46-16.17,29.81-31.52,45.98-45.98c20.92-18.74,43.2-35.99,66.67-51.58c10.08-6.71,20.38-13.11,30.89-19.18
			c30.85-17.86,63.48-32.98,97.56-45.03c31.38-11.1,63.98-19.6,97.56-25.23c31.73-5.34,64.33-8.11,97.57-8.12H585
			c33.19,0,65.74,2.76,97.43,8.07c33.57,5.62,66.18,14.1,97.56,25.18c34.08,12.04,66.71,27.13,97.56,44.97
			c10.6,6.12,20.99,12.57,31.16,19.34c23.37,15.52,45.56,32.69,66.4,51.34c16.26,14.53,31.71,29.96,46.25,46.22
			c18.63,20.8,35.79,42.94,51.31,66.26c6.81,10.21,13.3,20.65,19.45,31.3c17.86,30.85,32.98,63.48,45.03,97.56
			c11.1,31.38,19.6,63.98,25.23,97.56C1166.77,513.37,1169.42,540.03,1170.23,567.15z"/>
		<path class="st0" d="M1560.5,780c0,53.85,43.65,97.5,97.5,97.5h0.04v0.05h1951.22v-0.05c53.73-0.14,97.24-43.74,97.24-97.5v-0.01
			h0.32V389.74h-0.32c-0.14-53.64-43.6-97.1-97.24-97.24v-0.32H1658.04v0.32H1658c-53.76,0-97.36,43.51-97.5,97.24h-0.02v390.25
			h0.02V780z M3999.5,292v585.55c-0.01,34.21-5.87,67.04-16.66,97.56c-12.83,36.35-32.64,69.4-57.81,97.56
			c-7.26,8.13-14.97,15.85-23.09,23.11c-28.15,25.23-61.2,45.09-97.56,57.97c-26.83,9.51-55.46,15.22-85.23,16.48h-25.3h-2120.7
			h-25.3c-29.67-1.26-58.19-6.93-84.94-16.38c-36.35-12.83-69.4-32.64-97.56-57.8c-8.23-7.35-16.04-15.15-23.38-23.38
			c-25.17-28.16-44.98-61.21-57.81-97.56c-9.41-26.62-15.08-55-16.37-84.52v-26.18V305.59v-26.18c1.3-29.62,7-58.09,16.46-84.79
			c12.88-36.36,32.74-69.41,57.97-97.56c7.27-8.13,14.99-15.84,23.13-23.11c28.16-25.16,61.21-44.97,97.56-57.8
			c30.52-10.78,63.36-16.65,97.57-16.65c0.01,0,0.01,0,0.02,0H3707c34.14,0,66.92,5.85,97.38,16.6
			c36.36,12.83,69.41,32.65,97.56,57.83c8.13,7.27,15.86,15,23.13,23.13c25.18,28.15,45,61.2,57.83,97.56
			C3993.65,225.08,3999.5,257.86,3999.5,292z"/>
		<path class="st0" d="M292.62,1413.64h2146.5c33.99,0,66.63,5.8,96.97,16.46c0.14,0.04,0.27,0.09,0.41,0.14
			c23.19,8.18,45.04,19.21,65.13,32.67c11.25,7.53,21.94,15.82,32.02,24.8c0.14,0.12,0.27,0.24,0.41,0.36
			c8.13,7.27,15.86,15,23.13,23.13c13.51,15.1,25.47,31.61,35.64,49.28c8.79,15.28,16.24,31.42,22.19,48.28
			c5.59,15.84,9.86,32.31,12.66,49.28c1.76,10.62,2.95,21.43,3.53,32.41v616.78c-0.6,11.44-1.85,22.69-3.73,33.73
			c-2.81,16.62-7.03,32.75-12.52,48.29c-6.08,17.22-13.73,33.7-22.77,49.27c-10.03,17.3-21.79,33.47-35.04,48.29
			c-7.26,8.13-14.97,15.85-23.09,23.11c-0.14,0.12-0.27,0.24-0.41,0.36c-10.5,9.38-21.67,18.01-33.44,25.81
			c-19.7,13.05-41.06,23.78-63.71,31.8c-0.14,0.05-0.27,0.1-0.41,0.14c-26.71,9.43-55.2,15.09-84.82,16.34H279.97
			c-29.67-1.26-58.19-6.93-84.94-16.38c-0.14-0.05-0.27-0.1-0.41-0.15c-22.6-8.01-43.92-18.73-63.58-31.75
			c-11.82-7.83-23.04-16.49-33.57-25.9c-0.14-0.12-0.27-0.25-0.41-0.37c-8.08-7.24-15.75-14.92-22.97-23.01
			c-13.25-14.82-25.01-30.99-35.04-48.29c-9.04-15.57-16.69-32.05-22.77-49.27c-5.49-15.54-9.71-31.67-12.52-48.29
			c-2.01-11.85-3.31-23.94-3.85-36.23v-61.33v-97.56v-97.56v-97.56v-97.56v-97.56v-62.05c0.53-12.04,1.78-23.89,3.72-35.51
			c2.84-16.96,7.13-33.43,12.74-49.28c5.97-16.86,13.45-33,22.26-48.28c10.19-17.67,22.18-34.18,35.71-49.28
			c7.15-7.99,14.73-15.58,22.72-22.74c0.13-0.12,0.27-0.25,0.41-0.37c10.21-9.13,21.07-17.55,32.5-25.18
			c19.95-13.35,41.64-24.31,64.65-32.47c0.14-0.05,0.27-0.1,0.41-0.15c30.39-10.74,63.09-16.6,97.15-16.65h0.42
			C292.61,1413.64,292.61,1413.64,292.62,1413.64z M2438.94,2194.13v-390.25h-0.32c0-1.34-0.03-2.67-0.1-4
			c-0.68-16.08-5.27-31.15-12.83-44.28c-16.78-29.19-48.25-48.87-84.31-48.96v-0.32H390.16v0.32h-0.42
			c-36.02,0.14-67.43,19.8-84.19,48.96c-8.19,14.22-12.88,30.71-12.93,48.28h-0.02v49.28h-0.42v292.68h0.42v48.29h0.02v0.01
			c0,17.97,4.86,34.81,13.35,49.26c16.86,28.76,48.05,48.1,83.77,48.24h0.42v0.05h1951.22v-0.05c35.77-0.09,67.01-19.45,83.89-48.24
			c7.81-13.3,12.55-28.63,13.25-45c0.07-1.41,0.1-2.83,0.1-4.26v-0.01H2438.94z"/>
	</g>
	<g>
		<line class="st1" x1="1170.23" y1="3414.13" x2="1170.8" y2="3414.13"/>
		<polyline class="st1" points="3023.89,2435.83 3023.89,2438.52 3026.92,2438.52 		"/>
		<line class="st1" x1="2633.65" y1="3121.45" x2="2633.65" y2="3121.32"/>
		<path class="st1" d="M612.16,3999.5c23.82-1.06,47.27-3.55,70.27-7.38c0.19-0.03,0.38-0.06,0.57-0.09
			c33.37-5.59,65.79-14,96.99-24.98c0.19-0.07,0.38-0.13,0.57-0.2c33.87-11.97,66.31-26.94,96.99-44.64l0.57-0.33
			c10.75-6.2,21.28-12.75,31.57-19.61c0.16-0.11,0.33-0.22,0.49-0.33c22.83-15.23,44.52-32.02,64.93-50.23l0.57-0.51
			c16.35-14.61,31.88-30.14,46.49-46.49c0.1-0.11,0.2-0.22,0.29-0.33c18.2-20.37,34.98-42.02,50.21-64.81
			c0.19-0.28,0.38-0.57,0.57-0.85c6.86-10.29,13.41-20.82,19.61-31.57c0.06-0.11,0.13-0.22,0.19-0.33
			c17.76-30.75,32.78-63.27,44.78-97.23c0.04-0.11,0.08-0.22,0.11-0.33c11.03-31.28,19.47-63.78,25.07-97.23
			c0.02-0.11,0.04-0.22,0.05-0.33c3.59-21.51,6.01-43.41,7.18-65.65"/>
		<path class="st1" d="M1170.23,3383.1c-1.18-22.42-3.63-44.52-7.28-66.2c-0.02-0.11-0.04-0.22-0.06-0.33
			c-5.63-33.46-14.11-65.95-25.17-97.23c-0.04-0.11-0.08-0.22-0.12-0.33c-12.03-33.96-27.11-66.48-44.91-97.23
			c-0.06-0.11-0.13-0.22-0.19-0.33c-6.09-10.54-12.52-20.87-19.26-30.97c-0.19-0.28-0.38-0.57-0.57-0.85
			c-15.37-23.01-32.34-44.86-50.74-65.41c-0.1-0.11-0.2-0.22-0.3-0.33c-14.45-16.14-29.8-31.46-45.95-45.89
			c-0.19-0.17-0.38-0.34-0.57-0.51c-20.67-18.45-42.67-35.45-65.83-50.83c-0.17-0.11-0.33-0.22-0.5-0.33
			c-10.01-6.65-20.23-12.99-30.66-19.01c-0.19-0.11-0.38-0.22-0.57-0.33c-30.68-17.7-63.12-32.67-96.99-44.64
			c-0.19-0.07-0.38-0.13-0.57-0.2c-31.2-10.98-63.62-19.39-96.99-24.98c-0.19-0.03-0.38-0.06-0.57-0.09
			c-31.51-5.25-63.87-7.98-96.86-7.98h-0.7c-33.04,0.04-65.45,2.81-97,8.12c-0.19,0.03-0.38,0.06-0.57,0.1
			c-33.38,5.63-65.79,14.09-96.99,25.13c-0.19,0.07-0.38,0.13-0.57,0.21c-33.87,12.01-66.31,27.06-96.99,44.82
			c-0.19,0.11-0.38,0.22-0.57,0.33c-10.14,5.87-20.08,12.05-29.82,18.52c-0.17,0.11-0.33,0.22-0.5,0.33
			c-23.47,15.59-45.75,32.84-66.67,51.58c-0.19,0.17-0.38,0.34-0.57,0.51c-15.85,14.21-30.91,29.28-45.11,45.14
			c-0.1,0.11-0.2,0.22-0.3,0.33c-18.74,20.92-35.99,43.2-51.58,66.67c-0.19,0.29-0.38,0.57-0.57,0.86
			c-6.43,9.7-12.58,19.6-18.42,29.7c-0.06,0.11-0.13,0.22-0.19,0.33c-17.8,30.75-32.88,63.27-44.91,97.23
			c-0.04,0.11-0.08,0.22-0.12,0.33c-11.06,31.28-19.54,63.77-25.17,97.23c-0.02,0.11-0.04,0.22-0.06,0.33
			c-5.32,31.62-8.09,64.11-8.12,97.23v0.47c0,33.07,2.74,65.51,8.02,97.1c0.01,0.11,0.03,0.22,0.05,0.33
			c5.6,33.45,14.04,65.95,25.07,97.23c0.03,0.11,0.07,0.22,0.11,0.33c12,33.96,27.02,66.48,44.78,97.23
			c0.06,0.11,0.13,0.22,0.19,0.33c5.95,10.3,12.21,20.41,18.77,30.3c0.19,0.29,0.38,0.57,0.57,0.86
			c15.44,23.25,32.51,45.33,51.05,66.07c0.09,0.11,0.19,0.22,0.29,0.33c14.36,16.07,29.6,31.35,45.65,45.74l0.57,0.51
			c20.65,18.5,42.63,35.55,65.77,50.98c0.16,0.11,0.33,0.22,0.49,0.33c10.03,6.69,20.28,13.07,30.73,19.12l0.57,0.33
			c30.68,17.76,63.12,32.81,96.99,44.82c0.19,0.08,0.38,0.14,0.57,0.21c31.2,11.04,63.61,19.5,96.99,25.13
			c0.19,0.04,0.38,0.07,0.57,0.1c23.25,3.92,46.98,6.45,71.08,7.52"/>
		<line class="st1" x1="0.07" y1="3414.13" x2="-0.5" y2="3414.13"/>
		<polyline class="st1" points="3609.38,3121.45 3609.26,3121.45 3511.7,3121.45 3414.13,3121.45 3316.57,3121.45 3219.01,3121.45 
			3121.45,3121.45 3023.89,3121.45 2926.33,3121.45 2828.77,3121.45 2731.21,3121.45 2633.65,3121.45 2536.09,3121.45 
			2438.52,3121.45 2340.96,3121.45 2243.4,3121.45 2145.84,3121.45 2048.28,3121.45 1950.72,3121.45 1853.16,3121.45 
			1755.6,3121.45 1658.16,3121.45 		"/>
		<line class="st1" x1="-0.09" y1="2243.4" x2="-0.5" y2="2243.4"/>
		<line class="st1" x1="-0.09" y1="2145.84" x2="-0.5" y2="2145.84"/>
		<line class="st1" x1="-0.09" y1="2048.28" x2="-0.5" y2="2048.28"/>
		<line class="st1" x1="-0.09" y1="1950.72" x2="-0.5" y2="1950.72"/>
		<line class="st1" x1="-0.09" y1="1853.16" x2="-0.5" y2="1853.16"/>
		<line class="st1" x1="-0.09" y1="1755.6" x2="-0.5" y2="1755.6"/>
		<line class="st1" x1="7.57" y1="682.43" x2="-0.5" y2="682.43"/>
		<line class="st1" x1="7.62" y1="487.3" x2="-0.5" y2="487.3"/>
		<polyline class="st1" points="3706.82,3218.88 3706.82,3219.01 3706.82,3316.57 3706.82,3414.13 3706.82,3511.7 3706.82,3609.13 
					"/>
		<line class="st1" x1="3706.82" y1="3999.5" x2="3706.82" y2="3999.37"/>
		<line class="st1" x1="3609.26" y1="3999.5" x2="3609.26" y2="3999.37"/>
		<line class="st1" x1="3511.7" y1="3999.5" x2="3511.7" y2="3999.37"/>
		<line class="st1" x1="3414.13" y1="3999.5" x2="3414.13" y2="3999.37"/>
		<line class="st1" x1="3316.57" y1="3999.5" x2="3316.57" y2="3999.37"/>
		<line class="st1" x1="3219.01" y1="3999.5" x2="3219.01" y2="3999.37"/>
		<line class="st1" x1="3121.45" y1="3999.5" x2="3121.45" y2="3999.37"/>
		<line class="st1" x1="3121.45" y1="2004.25" x2="3121.45" y2="1993.89"/>
		<line class="st1" x1="3023.89" y1="3999.5" x2="3023.89" y2="3999.37"/>
		<line class="st1" x1="2926.33" y1="3999.5" x2="2926.33" y2="3999.37"/>
		<line class="st1" x1="2828.77" y1="3999.5" x2="2828.77" y2="3999.37"/>
		<line class="st1" x1="2731.21" y1="3999.5" x2="2731.21" y2="3999.37"/>
		<line class="st1" x1="2633.65" y1="3999.5" x2="2633.65" y2="3999.37"/>
		<line class="st1" x1="2536.09" y1="3999.5" x2="2536.09" y2="3999.37"/>
		<polyline class="st1" points="2438.52,1799.88 2438.52,1853.16 2438.52,1950.72 2438.52,2048.28 2438.52,2145.84 2438.52,2198.4 
					"/>
		<line class="st1" x1="2438.52" y1="3999.5" x2="2438.52" y2="3999.37"/>
		<line class="st1" x1="2340.96" y1="3999.5" x2="2340.96" y2="3999.37"/>
		<line class="st1" x1="2243.4" y1="3999.5" x2="2243.4" y2="3999.37"/>
		<line class="st1" x1="2145.84" y1="3999.5" x2="2145.84" y2="3999.37"/>
		<line class="st1" x1="2048.28" y1="3999.5" x2="2048.28" y2="3999.37"/>
		<line class="st1" x1="1950.72" y1="3999.5" x2="1950.72" y2="3999.37"/>
		<line class="st1" x1="1853.16" y1="3999.5" x2="1853.16" y2="3999.37"/>
		<line class="st1" x1="1755.6" y1="3999.5" x2="1755.6" y2="3999.37"/>
		<line class="st1" x1="1658.04" y1="3999.5" x2="1658.04" y2="3999.37"/>
		<line class="st1" x1="1560.48" y1="3999.5" x2="1560.48" y2="3999.37"/>
		<line class="st1" x1="1462.91" y1="16.15" x2="1462.91" y2="-0.5"/>
		<line class="st1" x1="682.43" y1="7.57" x2="682.43" y2="-0.5"/>
		<line class="st1" x1="487.3" y1="7.62" x2="487.3" y2="-0.5"/>
		<path class="st1" d="M602.85,1170.23c27.03-0.81,53.59-3.45,79.58-7.8c33.57-5.62,66.18-14.1,97.56-25.18
			c34.08-12.04,66.71-27.13,97.56-44.97c10.75-6.2,21.28-12.75,31.57-19.61c23.22-15.46,45.27-32.53,65.99-51.07
			c16.35-14.61,31.88-30.14,46.49-46.49c18.54-20.72,35.61-42.77,51.07-65.99c6.86-10.29,13.41-20.82,19.61-31.57
			c17.84-30.85,32.93-63.48,44.97-97.56c11.08-31.38,19.56-63.99,25.18-97.56c4.35-25.99,6.99-52.55,7.8-79.58"/>
		<path class="st1" d="M1170.23,567.15c-0.81-27.12-3.46-53.78-7.85-79.85c-5.63-33.58-14.13-66.18-25.23-97.56
			c-12.05-34.08-27.17-66.71-45.03-97.56c-6.15-10.65-12.64-21.09-19.45-31.3c-15.52-23.32-32.68-45.46-51.31-66.26
			c-14.54-16.26-29.99-31.69-46.25-46.22c-20.84-18.65-43.03-35.82-66.4-51.34c-10.17-6.77-20.56-13.22-31.16-19.34
			c-30.85-17.84-63.48-32.93-97.56-44.97C748.61,21.67,716,13.19,682.43,7.57C650.74,2.26,618.19-0.5,585-0.5h-0.13
			c-33.24,0.01-65.84,2.78-97.57,8.12c-33.58,5.63-66.18,14.13-97.56,25.23c-34.08,12.05-66.71,27.17-97.56,45.03
			c-10.51,6.07-20.81,12.47-30.89,19.18c-23.47,15.59-45.75,32.84-66.67,51.58c-16.17,14.46-31.52,29.81-45.98,45.98
			c-18.74,20.92-35.99,43.2-51.58,66.67c-6.71,10.08-13.11,20.38-19.18,30.89c-17.86,30.85-32.98,63.48-45.03,97.56
			c-11.1,31.38-19.6,63.98-25.23,97.56c-5.34,31.73-8.11,64.33-8.12,97.57V585c0,33.19,2.76,65.74,8.07,97.43
			C13.19,716,21.42,748.12,32.5,779.5c12.04,34.08,27.38,67.2,45.22,98.05c6.12,10.6,12.57,20.99,19.34,31.16
			c15.52,23.37,32.69,45.56,51.34,66.4c14.53,16.26,29.96,31.71,46.22,46.25c20.8,18.63,42.94,35.79,66.26,51.31
			c10.21,6.81,20.65,13.3,31.3,19.45c30.85,17.86,63.48,32.98,97.56,45.03c31.38,11.1,63.98,19.6,97.56,25.23
			c26.07,4.39,52.73,7.04,79.85,7.85"/>
		<path class="st1" d="M602.85,1170.23c-5.93,0.18-11.88,0.27-17.85,0.27h-0.13c-5.93,0-11.83-0.09-17.72-0.27H602.85z"/>
		<path class="st1" d="M1170.23,567.15c0.18,5.89,0.27,11.79,0.27,17.72V585c0,5.97-0.09,11.92-0.27,17.85V567.15z"/>
		<path class="st1" d="M877.5,584.87V585c0,34.16-5.86,66.96-16.62,97.43c-12.84,36.36-32.66,69.42-57.86,97.56
			c-7.24,8.1-14.93,15.79-23.03,23.03c-28.14,25.2-61.2,45.02-97.56,57.86c-30.47,10.76-63.27,16.62-97.43,16.62h-0.13
			c-34.22-0.01-67.06-5.9-97.57-16.72c-36.37-12.88-69.43-32.75-97.56-58c-8-7.17-15.6-14.78-22.76-22.79
			c-25.2-28.14-45.02-61.2-57.86-97.56c-10.76-30.47-16.62-63.27-16.62-97.43v-0.13c0.01-34.22,5.9-67.06,16.72-97.57
			c12.88-36.37,32.75-69.43,58-97.56c7.09-7.91,14.61-15.43,22.52-22.52c28.13-25.25,61.19-45.12,97.56-58
			c30.51-10.82,63.35-16.71,97.57-16.72H585c34.16,0,66.96,5.86,97.43,16.62c36.36,12.84,69.42,32.66,97.56,57.86
			c8.01,7.16,15.62,14.76,22.79,22.76c25.25,28.13,45.12,61.19,58,97.56C871.6,517.81,877.49,550.65,877.5,584.87z"/>
		<line class="st1" x1="1573.15" y1="1170.23" x2="3693.85" y2="1170.23"/>
		<path class="st1" d="M1267.79,890.59c1.29,29.52,6.96,57.9,16.37,84.52c12.83,36.35,32.64,69.4,57.81,97.56
			c7.34,8.23,15.15,16.03,23.38,23.38c28.16,25.16,61.21,44.97,97.56,57.8c26.75,9.45,55.27,15.12,84.94,16.38"/>
		<line class="st1" x1="1267.79" y1="305.59" x2="1267.79" y2="864.41"/>
		<path class="st1" d="M3719.15,1170.23c29.77-1.26,58.4-6.97,85.23-16.48c36.36-12.88,69.41-32.74,97.56-57.97
			c8.12-7.26,15.83-14.98,23.09-23.11c25.17-28.16,44.98-61.21,57.81-97.56c10.79-30.52,16.65-63.35,16.66-97.56V292
			c0-34.14-5.85-66.92-16.6-97.38c-12.83-36.36-32.65-69.41-57.83-97.56c-7.27-8.13-15-15.86-23.13-23.13
			c-28.15-25.18-61.2-45-97.56-57.83C3773.92,5.35,3741.14-0.5,3707-0.5H1560.5c-0.01,0-0.01,0-0.02,0
			c-34.21,0-67.05,5.87-97.57,16.65c-36.35,12.83-69.4,32.64-97.56,57.8c-8.14,7.27-15.86,14.98-23.13,23.11
			c-25.23,28.15-45.09,61.2-57.97,97.56c-9.46,26.7-15.16,55.17-16.46,84.79"/>
		<path class="st1" d="M3706.82,389.74v390.25h-0.32V780c0,53.76-43.51,97.36-97.24,97.5v0.05H1658.04v-0.05H1658
			c-53.85,0-97.5-43.65-97.5-97.5v-0.01h-0.02V389.74h0.02c0.14-53.73,43.74-97.24,97.5-97.24h0.04v-0.32h1951.22v0.32
			c53.64,0.14,97.1,43.6,97.24,97.24H3706.82z"/>
		<path class="st1" d="M1267.79,279.41v26.18c-0.19-4.34-0.29-8.7-0.29-13.09v-0.32C1267.5,287.9,1267.6,283.64,1267.79,279.41z"/>
		<path class="st1" d="M1267.79,864.41v26.18c-0.19-4.32-0.29-8.67-0.29-13.04v-0.05C1267.5,873.11,1267.6,868.75,1267.79,864.41z"
			/>
		<path class="st1" d="M1573.15,1170.23c-4.2,0.18-8.41,0.27-12.65,0.27c-0.01,0-0.01,0-0.02,0c-4.23,0-8.44-0.09-12.63-0.27
			H1573.15z"/>
		<path class="st1" d="M3719.15,1170.23c-4.09,0.18-8.2,0.27-12.33,0.27h-0.32c-4.24,0-8.45-0.09-12.65-0.27H3719.15z"/>
		<path class="st1" d="M612.16,3999.5c-2.91,0.13-5.82,0.24-8.74,0.33h-35.7c-2.93-0.09-5.85-0.2-8.77-0.33H612.16z"/>
		<path class="st1" d="M1170.23,3383.1c0.25,4.54,0.44,9.09,0.57,13.65v17.38v18.32c-0.13,4.55-0.32,9.08-0.57,13.6v-31.92V3383.1z"
			/>
		<path class="st1" d="M860.87,3316.57c10.76,30.43,16.62,63.18,16.63,97.3v0.26c-0.01,34.11-5.87,66.87-16.62,97.3
			c-0.03,0.09-0.06,0.18-0.1,0.27c-12.84,36.25-32.62,69.22-57.76,97.29c-0.08,0.09-0.16,0.18-0.24,0.27
			c-7.17,8-14.78,15.6-22.79,22.76c-28.14,25.2-61.2,45.02-97.56,57.86c-30.47,10.76-63.27,16.62-97.43,16.62h-0.13
			c-34.22-0.01-67.06-5.9-97.57-16.72c-36.37-12.88-69.43-32.75-97.56-58c-7.91-7.09-15.43-14.61-22.51-22.52
			c-0.09-0.09-0.17-0.18-0.25-0.27c-25.14-28.07-44.92-61.04-57.76-97.29c-0.04-0.09-0.07-0.18-0.1-0.27
			c-10.75-30.43-16.61-63.19-16.62-97.3v-0.26c0.01-34.12,5.87-66.87,16.63-97.3c0.03-0.09,0.06-0.18,0.09-0.27
			c12.84-36.25,32.62-69.22,57.76-97.29c0.08-0.09,0.16-0.18,0.24-0.27c7.09-7.91,14.61-15.43,22.52-22.52
			c28.13-25.25,61.19-45.12,97.56-58c30.51-10.82,63.35-16.71,97.57-16.72H585c34.16,0,66.96,5.86,97.43,16.62
			c36.36,12.84,69.42,32.66,97.56,57.86c8.01,7.16,15.62,14.76,22.79,22.76c0.08,0.09,0.16,0.18,0.24,0.27
			c25.14,28.07,44.92,61.04,57.76,97.29C860.81,3316.39,860.84,3316.48,860.87,3316.57z"/>
		<path class="st1" d="M3715.9,2828.77c-2.92-0.09-5.84-0.13-8.78-0.13h-97.86"/>
		<path class="st1" d="M3999.5,3715.08c0.08-2.79,0.12-5.58,0.12-8.39v-585.55c0-2.8-0.04-5.59-0.12-8.38"/>
		<polyline class="st1" points="3609.26,2828.77 3609.26,2828.64 2926.33,2828.64 		"/>
		<path class="st1" d="M2828.77,2828.64H1560.62c-0.01,0-0.01,0-0.02,0h-0.12c-2.9,0-5.78,0.04-8.66,0.13"/>
		<polyline class="st1" points="2926.33,2828.77 2926.33,2828.64 2828.77,2828.64 2828.77,2828.77 		"/>
		<polyline class="st1" points="3706.82,3609.13 3706.62,3609.13 3706.62,3609.26 		"/>
		<polyline class="st1" points="1560.62,3609.26 1560.62,3609.13 1560.6,3609.13 1560.6,3219.01 		"/>
		<polyline class="st1" points="3609.26,3706.69 1658.16,3706.69 1658.16,3706.64 1658.04,3706.64 		"/>
		<polyline class="st1" points="1658.04,3121.64 1658.16,3121.64 1658.16,3121.45 		"/>
		<path class="st1" d="M3999.5,3112.76c-0.87-31.08-6.59-60.95-16.43-88.87c-0.02-0.04-0.03-0.09-0.05-0.13
			c-12.81-36.3-32.59-69.31-57.72-97.43c-0.03-0.04-0.07-0.09-0.11-0.13c-7.27-8.13-15-15.86-23.13-23.13
			c-0.04-0.04-0.08-0.07-0.12-0.11c-28.12-25.13-61.13-44.91-97.44-57.72c-0.04-0.01-0.08-0.03-0.12-0.04
			c-27.81-9.8-57.54-15.52-88.48-16.43h-106.64h-682.93h-97.56H1551.82c-31.05,0.91-60.89,6.67-88.79,16.52
			c-0.04,0.01-0.08,0.03-0.12,0.04c-36.3,12.83-69.31,32.63-97.44,57.76c-0.04,0.04-0.08,0.07-0.12,0.11
			c-8.1,7.24-15.78,14.91-23.01,23c-0.04,0.04-0.08,0.09-0.12,0.13c-25.17,28.12-44.99,61.13-57.85,97.43
			c-0.02,0.04-0.03,0.09-0.05,0.13c-9.43,26.66-15.11,55.09-16.41,84.66v611.18c1.29,29.52,6.96,57.9,16.37,84.52
			c0.02,0.04,0.03,0.09,0.05,0.13c12.83,36.3,32.62,69.3,57.76,97.43c0.04,0.04,0.08,0.09,0.12,0.13c7.27,8.14,15,15.86,23.14,23.14
			c0.04,0.04,0.08,0.07,0.12,0.11c28.13,25.13,61.14,44.93,97.44,57.76c0.04,0.01,0.08,0.03,0.12,0.04
			c26.75,9.45,55.27,15.12,84.94,16.38h12.51h97.56h97.56h97.56h97.56h97.56h97.56h97.56h97.56h97.56h97.57h97.56h97.56h97.56h97.56
			h97.56h97.56h97.56h97.56h97.56h97.57h97.56h97.56h12.45c29.73-1.26,58.31-6.95,85.11-16.44c0.04-0.01,0.08-0.03,0.12-0.04
			c36.31-12.86,69.32-32.68,97.44-57.86c0.04-0.04,0.08-0.07,0.12-0.11c8.08-7.22,15.75-14.9,22.97-22.98
			c0.04-0.04,0.08-0.09,0.12-0.13c25.14-28.13,44.93-61.13,57.76-97.43c0.02-0.04,0.03-0.09,0.05-0.13
			c9.91-28.02,15.66-57.98,16.54-89.17V3112.76z"/>
		<path class="st1" d="M1560.62,3609.26h-0.14v-390.25h0.12v-0.13h0.02c0.14-53.7,43.7-97.2,97.42-97.24v-0.19h0.12v-0.13h975.49
			h975.73v0.13v0.19c53.64,0.14,97.1,43.6,97.24,97.24h0.2h0.12v390.25h-0.12v0.13h-0.2c-0.07,53.71-43.55,97.24-97.24,97.38v0.05
			h-0.12v0.13H1658.04v-0.18C1604.27,3706.6,1560.68,3663.03,1560.62,3609.26z"/>
		<path class="st1" d="M2731.21,2307.23c0.27-5.14,0.41-10.33,0.41-15.54v-585.55c0-5.26-0.14-10.49-0.41-15.69"/>
		<line class="st1" x1="292.6" y1="2145.84" x2="292.6" y2="1853.16"/>
		<path class="st1" d="M2731.21,1690.45c-0.58-10.98-1.77-21.79-3.53-32.41c-2.8-16.97-7.07-33.44-12.66-49.28
			c-5.95-16.86-13.4-33-22.19-48.28c-10.17-17.67-22.13-34.18-35.64-49.28c-7.27-8.13-15-15.86-23.13-23.13
			c-0.14-0.12-0.27-0.24-0.41-0.36c-10.08-8.98-20.77-17.27-32.02-24.8c-20.09-13.46-41.94-24.49-65.13-32.67
			c-0.14-0.05-0.27-0.1-0.41-0.14c-30.34-10.66-62.98-16.46-96.97-16.46H292.62c-0.01,0-0.01,0-0.02,0h-0.42
			c-34.06,0.05-66.76,5.91-97.15,16.65c-0.14,0.05-0.27,0.1-0.41,0.15c-23.01,8.16-44.7,19.12-64.65,32.47
			c-11.43,7.63-22.29,16.05-32.5,25.18c-0.14,0.12-0.28,0.25-0.41,0.37c-7.99,7.16-15.57,14.75-22.72,22.74
			c-13.53,15.1-25.52,31.61-35.71,49.28c-8.81,15.28-16.29,31.42-22.26,48.28c-5.61,15.85-9.9,32.32-12.74,49.28
			c-1.94,11.62-3.19,23.47-3.72,35.51v62.05v97.56v97.56v97.56v97.56v97.56v61.33c0.54,12.29,1.84,24.38,3.85,36.23
			c2.81,16.62,7.03,32.75,12.52,48.29c6.08,17.22,13.73,33.7,22.77,49.27c10.03,17.3,21.79,33.47,35.04,48.29
			c7.22,8.09,14.89,15.77,22.97,23.01c0.14,0.12,0.27,0.25,0.41,0.37c10.53,9.41,21.75,18.07,33.57,25.9
			c19.66,13.02,40.98,23.74,63.58,31.75c0.14,0.05,0.27,0.1,0.41,0.15c26.75,9.45,55.27,15.12,84.94,16.38h2171.3
			c29.62-1.25,58.11-6.91,84.82-16.34c0.14-0.04,0.27-0.09,0.41-0.14c22.65-8.02,44.01-18.75,63.71-31.8
			c11.77-7.8,22.94-16.43,33.44-25.81c0.14-0.12,0.27-0.24,0.41-0.36c8.12-7.26,15.83-14.98,23.09-23.11
			c13.25-14.82,25.01-30.99,35.04-48.29c9.04-15.57,16.69-32.05,22.77-49.27c5.49-15.54,9.71-31.67,12.52-48.29
			c1.88-11.04,3.13-22.29,3.73-33.73V1690.45z"/>
		<path class="st1" d="M2438.52,1799.88c0.07,1.33,0.1,2.66,0.1,4h0.32v390.25h-0.32v0.01c0,1.43-0.03,2.85-0.1,4.26
			c-0.7,16.37-5.44,31.7-13.25,45c-16.88,28.79-48.12,48.15-83.89,48.24v0.05H390.16v-0.05h-0.42
			c-35.72-0.14-66.91-19.48-83.77-48.24c-8.49-14.45-13.35-31.29-13.35-49.26v-0.01h-0.02v-48.29h-0.42v-292.68h0.42v-49.28h0.02
			c0.05-17.57,4.74-34.06,12.93-48.28c16.76-29.16,48.17-48.82,84.19-48.96h0.42v-0.32h1951.22v0.32
			c36.06,0.09,67.53,19.77,84.31,48.96C2433.25,1768.73,2437.84,1783.8,2438.52,1799.88z"/>
		<path class="st1" d="M2828.77,1978.23c-0.25,6.9-0.37,13.82-0.37,20.78v0.13c0,6.98,0.12,13.93,0.37,20.84"/>
		<path class="st1" d="M3026.92,2438.52c19.81,17.47,40.81,33.61,62.86,48.29c10.21,6.81,20.65,13.3,31.3,19.45
			c0.12,0.07,0.25,0.14,0.37,0.21c18.91,10.93,38.49,20.83,58.66,29.62c12.61,5.51,25.47,10.58,38.53,15.2
			c0.12,0.04,0.25,0.09,0.37,0.13c31.27,11.04,63.74,19.49,97.19,25.1c0.12,0.02,0.25,0.04,0.37,0.06
			c25.95,4.35,52.49,6.98,79.48,7.79h35.7c27.03-0.81,53.59-3.45,79.58-7.8c0.12-0.02,0.25-0.04,0.37-0.06
			c33.44-5.62,65.93-14.08,97.19-25.12c0.12-0.04,0.25-0.09,0.37-0.13c13.04-4.62,25.86-9.68,38.45-15.17
			c20.2-8.81,39.81-18.72,58.74-29.67c0.12-0.07,0.25-0.14,0.37-0.22c10.62-6.13,21.03-12.61,31.2-19.39
			c22.06-14.68,43.05-30.82,62.86-48.29c1.05-0.92,2.09-1.85,3.13-2.78c0.12-0.11,0.25-0.22,0.37-0.33
			c16.22-14.52,31.62-29.93,46.12-46.16c13.77-15.39,26.72-31.5,38.81-48.29c4.19-5.82,8.28-11.72,12.26-17.7
			c0.12-0.19,0.25-0.37,0.37-0.56c6.73-10.11,13.15-20.45,19.24-31.01c9.05-15.65,17.39-31.76,24.99-48.29
			c7.38-16.04,14.05-32.48,19.98-49.27c5.58-15.8,10.5-31.9,14.72-48.29c4.18-16.16,7.67-32.59,10.46-49.27
			c2.66-15.89,4.68-31.99,6.03-48.29c0.86-10.36,1.45-20.79,1.77-31.29v-35.7c-0.31-10.26-0.88-20.45-1.7-30.57
			c-1.36-16.63-3.42-33.07-6.15-49.28c-2.74-16.34-6.16-32.45-10.23-48.28c-4.29-16.73-9.3-33.17-15-49.28
			c-5.82-16.44-12.35-32.55-19.56-48.28c-7.72-16.88-16.23-33.32-25.47-49.28c-6.04-10.46-12.4-20.71-19.08-30.74
			c-0.12-0.19-0.25-0.37-0.37-0.56c-3.82-5.73-7.73-11.39-11.75-16.98c-12.3-17.14-25.51-33.59-39.56-49.28
			c-14.43-16.14-29.75-31.46-45.88-45.89c-0.12-0.11-0.25-0.22-0.37-0.33c-0.77-0.69-1.54-1.38-2.32-2.06
			c-20.16-17.86-41.57-34.33-64.08-49.28c-10.05-6.69-20.32-13.07-30.79-19.12c-0.12-0.08-0.25-0.15-0.37-0.22
			c-18.43-10.65-37.49-20.33-57.11-28.95c-13.11-5.78-26.48-11.07-40.08-15.89c-0.12-0.04-0.25-0.09-0.37-0.13
			c-31.26-11.04-63.75-19.5-97.19-25.12c-0.12-0.02-0.25-0.04-0.37-0.06c-31.62-5.3-64.09-8.06-97.2-8.07h-0.36
			c-33.11,0.01-65.59,2.76-97.2,8.06c-0.12,0.02-0.25,0.04-0.37,0.06c-33.45,5.61-65.92,14.06-97.19,25.1
			c-0.12,0.04-0.25,0.09-0.37,0.13c-13.63,4.82-27.02,10.13-40.16,15.92c-19.6,8.6-38.63,18.26-57.03,28.9
			c-0.12,0.07-0.25,0.14-0.37,0.21c-10.51,6.07-20.81,12.47-30.89,19.18c-22.51,14.95-43.92,31.43-64.08,49.28
			c-0.75,0.65-1.48,1.31-2.22,1.97c-0.12,0.11-0.25,0.22-0.37,0.33c-16.17,14.46-31.52,29.81-45.98,45.98
			c-14.05,15.68-27.26,32.13-39.57,49.28c-3.97,5.54-7.85,11.16-11.64,16.84c-0.13,0.18-0.25,0.37-0.37,0.55
			c-6.71,10.08-13.11,20.38-19.18,30.89c-9.24,15.96-17.75,32.4-25.47,49.28c-7.21,15.73-13.74,31.84-19.56,48.28
			c-5.7,16.11-10.71,32.55-15,49.28c-4.07,15.83-7.49,31.94-10.23,48.28c-2.73,16.21-4.79,32.65-6.14,49.28
			c-0.75,9.11-1.29,18.28-1.61,27.51v41.75c0.33,9.49,0.88,18.93,1.66,28.3c1.36,16.29,3.38,32.4,6.04,48.29
			c2.79,16.68,6.28,33.11,10.46,49.27c4.22,16.39,9.14,32.49,14.72,48.29c5.93,16.79,12.6,33.23,19.98,49.27
			c7.6,16.53,15.94,32.64,24.99,48.29c6.12,10.6,12.57,20.99,19.34,31.16c0.12,0.18,0.24,0.37,0.37,0.55
			c3.95,5.94,8,11.79,12.17,17.56c12.07,16.79,25.03,32.91,38.8,48.29c14.53,16.26,29.96,31.71,46.22,46.25
			c0.12,0.11,0.25,0.22,0.37,0.33C3024.9,2436.73,3025.91,2437.63,3026.92,2438.52z"/>
		<path class="st1" d="M3121.45,1993.89c0.25-14.68,1.59-29.09,3.95-43.17c2.81-16.96,7.1-33.44,12.72-49.28
			c5.97-16.85,13.44-33,22.25-48.28c10.21-17.68,22.2-34.19,35.75-49.28c7.09-7.91,14.61-15.43,22.52-22.52
			c0.12-0.11,0.25-0.22,0.37-0.33c10.31-9.22,21.28-17.73,32.84-25.43c19.87-13.25,41.45-24.13,64.35-32.24
			c0.12-0.04,0.25-0.09,0.37-0.13c30.4-10.74,63.12-16.58,97.2-16.59h0.36c34.08,0.03,66.8,5.88,97.2,16.62
			c0.12,0.04,0.25,0.09,0.37,0.13c22.87,8.11,44.42,18.98,64.26,32.21c11.59,7.73,22.59,16.26,32.93,25.52
			c0.12,0.11,0.25,0.22,0.37,0.34c7.88,7.06,15.36,14.54,22.42,22.42c13.55,15.09,25.54,31.6,35.75,49.28
			c8.81,15.28,16.28,31.43,22.25,48.28c5.62,15.84,9.91,32.32,12.73,49.28c2.62,15.71,3.99,31.84,3.99,48.29v0.13
			c0,16.75-1.4,33.16-4.12,49.14c-2.8,16.62-7.01,32.76-12.5,48.29c-6.08,17.22-13.72,33.7-22.78,49.27
			c-10.04,17.3-21.82,33.48-35.08,48.29c-7.13,7.98-14.69,15.55-22.66,22.69c-0.12,0.12-0.25,0.23-0.37,0.34
			c-10.66,9.55-22.03,18.33-34.02,26.24c-19.54,12.91-40.72,23.53-63.17,31.49c-0.12,0.04-0.25,0.09-0.37,0.13
			c-30.4,10.74-63.12,16.59-97.2,16.62h-0.36c-34.08-0.01-66.8-5.85-97.2-16.59c-0.12-0.04-0.25-0.09-0.37-0.13
			c-22.48-7.96-43.7-18.59-63.27-31.52c-11.95-7.9-23.29-16.64-33.92-26.15c-0.12-0.11-0.25-0.22-0.37-0.33
			c-8-7.17-15.6-14.78-22.76-22.79c-13.26-14.81-25.04-30.99-35.08-48.29c-9.06-15.57-16.7-32.05-22.78-49.27
			c-5.49-15.53-9.7-31.67-12.5-48.29c-2.44-14.35-3.82-29.05-4.07-44.03c-0.04-1.7-0.05-3.4-0.05-5.11v-0.13
			C3121.4,1997.3,3121.42,1995.59,3121.45,1993.89z"/>
	</g>
</g>
</svg>
