<?xml version="1.0" encoding="utf-8"?>
<!-- Generator: Adobe Illustrator 26.3.1, SVG Export Plug-In . SVG Version: 6.00 Build 0)  -->
<svg version="1.1" id="Слой_1" xmlns="http://www.w3.org/2000/svg" xmlns:xlink="http://www.w3.org/1999/xlink" x="0px" y="0px"
	 viewBox="0 0 1920 1920" style="enable-background:new 0 0 1920 1920;" xml:space="preserve">
<style type="text/css">
	.st0{fill:#5A5A5A;}
</style>
<g>
	<path class="st0" d="M1838,164H82c-45.29,0-82-36.71-82-82v0C0,36.71,36.71,0,82,0h1756c45.29,0,82,36.71,82,82v0
		C1920,127.29,1883.29,164,1838,164z"/>
</g>
<g>
	<g>
		<path class="st0" d="M1838,1920H82c-45.29,0-82-36.71-82-82v0c0-45.29,36.71-82,82-82h1756c45.29,0,82,36.71,82,82v0
			C1920,1883.29,1883.29,1920,1838,1920z"/>
	</g>
</g>
<g>
	<path class="st0" d="M1838,1042H82c-45.29,0-82-36.71-82-82v0c0-45.29,36.71-82,82-82h1756c45.29,0,82,36.71,82,82v0
		C1920,1005.29,1883.29,1042,1838,1042z"/>
</g>
<g>
	<path class="st0" d="M1838,603H82c-45.29,0-82-36.71-82-82v0c0-45.29,36.71-82,82-82h1756c45.29,0,82,36.71,82,82v0
		C1920,566.29,1883.29,603,1838,603z"/>
</g>
<g>
	<path class="st0" d="M1838,1481H82c-45.29,0-82-36.71-82-82v0c0-45.29,36.71-82,82-82h1756c45.29,0,82,36.71,82,82v0
		C1920,1444.29,1883.29,1481,1838,1481z"/>
</g>
</svg>
