<?xml version="1.0" encoding="utf-8"?>
<!-- Generator: Adobe Illustrator 26.3.1, SVG Export Plug-In . SVG Version: 6.00 Build 0)  -->
<svg version="1.1" id="Слой_1" xmlns="http://www.w3.org/2000/svg" xmlns:xlink="http://www.w3.org/1999/xlink" x="0px" y="0px"
	 viewBox="0 0 4000 4000" style="enable-background:new 0 0 4000 4000;" xml:space="preserve">
<style type="text/css">
	.st0{fill:#606060;}
	.st1{fill:none;stroke:#000000;stroke-miterlimit:10;}
</style>
<g id="XMLID_00000172439693378071589910000013741155110722183100_">
	<g>
		<path class="st0" d="M2142.41,1434.94c0,0.01,0,0.02,0,0.03c-0.6,6.74-1.29,13.45-2.06,20.13c0,0.05-0.01,0.09-0.02,0.14
			c-0.44,2.58-0.96,5.14-1.54,7.67c-9.78,42.61-38.15,78.13-76.11,97.57c-4.66,2.39-9.47,4.53-14.4,6.41
			c-16.23,6.21-33.86,9.61-52.28,9.61c-15.8,0-31.02-2.5-45.28-7.13c-7.41-2.41-14.56-5.39-21.4-8.89
			c-37.96-19.44-66.33-54.96-76.11-97.57c-0.02-0.07-0.03-0.15-0.05-0.22c-2.39-10.51-3.66-21.45-3.66-32.69
			c0-0.61,0-1.21,0.01-1.81c1.1-8.6,1.98-17.27,2.63-26.01v-0.03c0.46-6.09,0.8-12.21,1.02-18.36c0.23-6.07,0.34-12.16,0.34-18.29
			v-0.15c0-6.07-0.11-12.12-0.34-18.14c-1-27.1-4.2-53.63-9.45-79.42c-6.89-33.93-17.31-66.58-30.85-97.56
			c-15.22-34.83-34.39-67.54-56.95-97.56c-0.1-0.13-0.2-0.27-0.31-0.4c-27.68-36.78-60.45-69.51-97.25-97.16
			c-0.1-0.08-0.21-0.16-0.31-0.24c-30.03-22.52-62.74-41.67-97.56-56.86c-30.98-13.52-63.64-23.91-97.57-30.78
			c-29.29-5.94-59.53-9.25-90.47-9.68c-2.31-0.03-4.62-0.05-6.94-0.05h-0.15c-2.27,0-4.53,0.02-6.79,0.05
			c-31.04,0.43-61.39,3.76-90.77,9.74c-33.93,6.89-66.58,17.31-97.56,30.85c-2.2,0.96-4.39,1.94-6.57,2.93
			c-7.4,3.36-14.69,6.9-21.88,10.63c-16.37,6.33-34.17,9.8-52.78,9.8c-5.52,0-10.97-0.31-16.33-0.91
			c-39.31-4.35-73.93-24.26-97.56-53.44c-2.51-3.09-4.9-6.3-7.15-9.6c-16.06-23.5-25.46-51.93-25.46-82.55
			c0-5.07,0.26-10.08,0.76-15.01c2.96-29.07,14.42-55.63,31.85-77.14c6.03-7.45,12.77-14.29,20.13-20.42
			c8.4-7,17.58-13.08,27.41-18.07l-0.62-0.66c16.56-8.12,33.45-15.66,50.64-22.61c31.55-12.75,64.12-23.5,97.56-32.09
			c31.78-8.17,64.35-14.38,97.56-18.5c24.03-2.99,48.39-4.88,73.05-5.63h48.32c24.89,0.75,49.49,2.68,73.75,5.72
			c33.22,4.15,65.78,10.39,97.57,18.59c33.44,8.63,66.01,19.41,97.56,32.2c29.53,11.97,58.16,25.69,85.76,41.05
			c3.96,2.19,7.89,4.42,11.8,6.69c34.25,19.84,66.86,42.2,97.56,66.84c9.7,7.79,19.21,15.8,28.52,24.03
			c24.42,21.58,47.48,44.68,69.04,69.13c8.18,9.28,16.15,18.76,23.88,28.43c24.59,30.71,46.9,63.31,66.69,97.56
			c2.37,4.1,4.7,8.22,6.99,12.37c15.2,27.43,28.78,55.87,40.63,85.19c12.75,31.55,23.5,64.12,32.09,97.56
			c8.17,31.78,14.38,64.35,18.5,97.56c3.96,31.85,6,64.29,6,97.21v0.35c-0.01,23.4-1.05,46.57-3.08,69.44c0,0.04,0,0.08-0.01,0.11
			v0.01c0,0.01,0,0.01,0,0.01C2142.42,1434.93,2142.41,1434.94,2142.41,1434.94z"/>
		<path class="st0" d="M3989.43,3804.38c10.6,31.64,10.09,66.19-1.51,97.56c-7.1,19.21-18.37,37.23-33.81,52.67
			c-15.3,15.3-33.15,26.51-52.17,33.62c-16.55,6.2-33.98,9.29-51.42,9.29c-15.59,0-31.19-2.47-46.14-7.43
			c-21-6.94-40.74-18.77-57.45-35.48L2731.21,2938.89l-12.56-12.56l-195.12-195.12l-85.01-85.01l-110.11-110.11l-85.01-85.01
			l-12.56-12.56l-8.84-8.84c-3.68,2.97-7.37,5.92-11.08,8.84c-21.19,16.72-42.89,32.83-65.08,48.29
			c-24.72,17.24-50.03,33.68-75.91,49.28c-7.17,4.33-14.39,8.59-21.65,12.78c-31.74,18.36-64.28,35.47-97.56,51.27
			c-25.1,11.93-50.63,23.1-76.55,33.51c-6.97,2.8-13.98,5.54-21.01,8.22c-31.96,12.23-64.5,23.28-97.56,33.12
			c-32.04,9.53-64.58,17.92-97.56,25.11c-32.11,7.01-64.64,12.89-97.56,17.58c-32.17,4.61-64.71,8.09-97.57,10.4
			c-22.91,1.61-45.98,2.66-69.19,3.13h-56.44c-23.31-0.47-46.48-1.52-69.49-3.15c-32.86-2.32-65.39-5.81-97.56-10.42
			c-32.92-4.7-65.45-10.59-97.56-17.6c-32.98-7.2-65.52-15.6-97.56-25.14c-33.06-9.84-65.6-20.9-97.56-33.14
			c-6.93-2.64-13.84-5.35-20.72-8.11c-26.02-10.45-51.64-21.67-76.84-33.65c-33.28-15.81-65.82-32.93-97.56-51.3
			c-7.16-4.13-14.28-8.34-21.36-12.61c-25.98-15.66-51.39-32.17-76.2-49.48c-22.09-15.4-43.69-31.44-64.79-48.09
			c-11.07-8.73-22-17.63-32.78-26.69c-26.93-22.62-52.97-46.26-78.06-70.87c-6.57-6.44-13.07-12.94-19.5-19.51
			c-24.59-25.09-48.22-51.13-70.82-78.05c-9.08-10.81-18-21.76-26.74-32.86c-16.62-21.07-32.62-42.65-47.99-64.7
			c-17.35-24.87-33.89-50.35-49.57-76.4c-4.23-7.01-8.4-14.07-12.49-21.16c-18.36-31.74-35.47-64.28-51.27-97.56
			c-12.04-25.34-23.31-51.11-33.8-77.28c-2.7-6.73-5.35-13.49-7.93-20.28c-12.23-31.96-23.28-64.5-33.12-97.56
			c-9.53-32.04-17.92-64.58-25.11-97.56c-7.01-32.11-12.89-64.64-17.58-97.56c-4.61-32.17-8.09-64.71-10.4-97.57
			c-2.27-32.18-3.42-64.66-3.42-97.41v-0.15c0-32.8,1.16-65.34,3.44-97.56c2.32-32.86,5.81-65.39,10.42-97.56
			c4.7-32.92,10.59-65.45,17.6-97.56c7.2-32.98,15.6-65.52,25.14-97.56c9.84-33.06,20.9-65.6,33.14-97.56
			c2.55-6.69,5.16-13.35,7.82-19.99c10.53-26.27,21.85-52.14,33.94-77.57c15.81-33.28,32.93-65.82,51.3-97.56
			c4.04-7,8.14-13.95,12.32-20.87c15.74-26.15,32.35-51.73,49.77-76.69c15.31-21.95,31.25-43.43,47.79-64.41
			c8.83-11.2,17.82-22.25,26.99-33.16c22.53-26.82,46.07-52.75,70.57-77.75c6.53-6.67,13.14-13.28,19.81-19.81
			c25-24.5,50.93-48.04,77.75-70.57c10.91-9.17,21.96-18.16,33.16-26.99c20.98-16.54,42.46-32.48,64.41-47.79
			c24.96-17.42,50.54-34.03,76.69-49.77c6.92-4.18,13.87-8.28,20.87-12.32c31.74-18.37,64.28-35.49,97.56-51.3
			c25.43-12.09,51.3-23.41,77.57-33.94c6.64-2.66,13.3-5.27,19.99-7.82c31.96-12.24,64.5-23.3,97.56-33.14
			c32.04-9.54,64.58-17.94,97.56-25.14c32.11-7.01,64.64-12.9,97.56-17.6c32.17-4.61,64.7-8.1,97.56-10.42
			c32.22-2.28,64.76-3.44,97.56-3.44h0.15c32.75,0,65.23,1.15,97.41,3.42c32.86,2.31,65.4,5.79,97.57,10.4
			c32.92,4.69,65.45,10.57,97.56,17.58c32.98,7.19,65.52,15.58,97.56,25.11c33.06,9.84,65.6,20.89,97.56,33.12
			c6.79,2.58,13.55,5.23,20.28,7.93c26.17,10.49,51.94,21.76,77.28,33.8c33.28,15.8,65.82,32.91,97.56,51.27
			c7.09,4.09,14.15,8.26,21.16,12.49c26.05,15.68,51.53,32.22,76.4,49.57c22.05,15.37,43.63,31.37,64.7,47.99
			c11.1,8.74,22.05,17.66,32.86,26.74c26.92,22.6,52.96,46.23,78.05,70.82c6.57,6.43,13.07,12.93,19.51,19.5
			c24.61,25.09,48.25,51.13,70.87,78.06c9.06,10.78,17.96,21.71,26.69,32.78c16.65,21.1,32.69,42.7,48.09,64.79
			c17.31,24.81,33.82,50.22,49.48,76.2c4.27,7.08,8.48,14.2,12.61,21.36c18.37,31.74,35.49,64.28,51.3,97.56
			c11.98,25.2,23.2,50.82,33.65,76.84c2.76,6.88,5.47,13.79,8.11,20.72c12.24,31.96,23.3,64.5,33.14,97.56
			c9.54,32.04,17.94,64.58,25.14,97.56c7.01,32.11,12.9,64.64,17.6,97.56c4.61,32.17,8.1,64.7,10.42,97.56
			c1.63,23.01,2.68,46.18,3.15,69.49v56.44c-0.47,23.21-1.52,46.28-3.13,69.19c-2.31,32.86-5.79,65.4-10.4,97.57
			c-4.69,32.92-10.57,65.45-17.58,97.56c-7.19,32.98-15.58,65.52-25.11,97.56c-9.84,33.06-20.89,65.6-33.12,97.56
			c-2.68,7.03-5.42,14.04-8.22,21.01c-10.41,25.92-21.58,51.45-33.51,76.55c-15.8,33.28-32.91,65.82-51.27,97.56
			c-4.19,7.26-8.45,14.48-12.78,21.65c-15.6,25.88-32.04,51.19-49.28,75.91c-15.46,22.19-31.57,43.89-48.29,65.08
			c-3.07,3.9-6.17,7.78-9.28,11.64l9.28,9.28l780.49,780.49l11.56,11.56l195.12,195.12l86.01,86.01l11.55,11.55l86.01,86.01
			l11.55,11.55l333.3,333.3C3970.69,3764.01,3982.46,3783.57,3989.43,3804.38z M1365.5,2438.5c32.83,0,65.32-1.47,97.41-4.36
			c32.97-2.97,65.52-7.43,97.57-13.32c33.08-6.06,65.62-13.65,97.56-22.68c33.2-9.39,65.75-20.33,97.56-32.76
			c19.46-7.59,38.64-15.74,57.52-24.42c13.5-6.2,26.85-12.68,40.04-19.43c33.58-17.16,66.14-36.04,97.56-56.53
			c10.76-7.01,21.39-14.21,31.87-21.6c22.55-15.88,44.46-32.6,65.69-50.13c18.42-15.22,36.32-31.03,53.68-47.43
			c15.05-14.19,29.69-28.83,43.88-43.88c16.4-17.36,32.21-35.26,47.43-53.68c17.53-21.23,34.25-43.14,50.13-65.69
			c7.39-10.48,14.59-21.11,21.6-31.87c20.49-31.42,39.37-63.98,56.53-97.56c6.75-13.19,13.23-26.54,19.43-40.04
			c8.68-18.88,16.83-38.06,24.42-57.52c12.43-31.81,23.37-64.36,32.76-97.56c9.03-31.94,16.62-64.48,22.68-97.56
			c5.89-32.05,10.35-64.6,13.32-97.57c2.89-32.09,4.36-64.58,4.36-97.41v-0.15c0-32.89-1.49-65.43-4.39-97.56
			c-2.97-32.97-7.44-65.51-13.34-97.56c-6.07-33.08-13.67-65.62-22.71-97.56c-9.4-33.2-20.36-65.75-32.79-97.56
			c-7.56-19.36-15.67-38.44-24.31-57.23c-6.25-13.6-12.78-27.05-19.58-40.33c-17.17-33.59-36.07-66.14-56.57-97.56
			c-6.95-10.66-14.09-21.19-21.41-31.58c-15.95-22.66-32.76-44.66-50.37-65.98c-15.14-18.32-30.88-36.13-47.19-53.39
			c-14.29-15.15-29.02-29.88-44.18-44.17c-17.26-16.29-35.07-32.01-53.38-47.14c-21.36-17.64-43.41-34.46-66.12-50.43
			c-10.34-7.28-20.83-14.39-31.44-21.3c-31.42-20.49-63.98-39.37-97.56-56.53c-13.41-6.86-26.97-13.44-40.7-19.73
			c-18.67-8.57-37.63-16.62-56.86-24.12c-31.81-12.43-64.36-23.37-97.56-32.76c-31.94-9.03-64.48-16.62-97.56-22.68
			c-32.05-5.89-64.6-10.35-97.57-13.32c-32.09-2.89-64.58-4.36-97.41-4.36h-0.15c-32.89,0-65.43,1.49-97.56,4.39
			c-32.97,2.97-65.51,7.44-97.56,13.34c-33.08,6.07-65.62,13.67-97.56,22.71c-33.2,9.4-65.75,20.36-97.56,32.79
			c-19.13,7.48-37.99,15.48-56.57,24.01c-13.83,6.34-27.49,12.97-40.99,19.88c-33.59,17.17-66.14,36.07-97.56,56.57
			c-10.52,6.85-20.9,13.89-31.15,21.11c-22.81,16.04-44.96,32.95-66.41,50.67c-18.21,15.05-35.92,30.7-53.09,46.9
			c-15.26,14.38-30.09,29.21-44.47,44.47c-16.2,17.17-31.85,34.88-46.9,53.09c-17.72,21.45-34.63,43.6-50.67,66.41
			c-7.22,10.25-14.26,20.63-21.11,31.15c-20.5,31.42-39.4,63.97-56.57,97.56c-6.91,13.5-13.54,27.16-19.88,40.99
			c-8.53,18.58-16.53,37.44-24.01,56.57c-12.43,31.81-23.39,64.36-32.79,97.56c-9.04,31.94-16.64,64.48-22.71,97.56
			c-5.9,32.05-10.37,64.59-13.34,97.56h-4.71v97.71v97.41h4.68c2.97,32.97,7.43,65.52,13.32,97.57
			c6.06,33.08,13.65,65.62,22.68,97.56c9.39,33.2,20.33,65.75,32.76,97.56c7.5,19.23,15.55,38.19,24.12,56.86
			c6.29,13.73,12.87,27.29,19.73,40.7c17.16,33.58,36.04,66.14,56.53,97.56c6.91,10.61,14.02,21.1,21.3,31.44
			c15.97,22.71,32.79,44.76,50.43,66.12c15.13,18.31,30.85,36.12,47.14,53.38c14.29,15.16,29.02,29.89,44.17,44.18
			c17.26,16.31,35.07,32.05,53.39,47.19c21.32,17.61,43.32,34.42,65.98,50.37c10.39,7.32,20.92,14.46,31.58,21.41
			c31.42,20.5,63.97,39.4,97.56,56.57c13.28,6.8,26.73,13.33,40.33,19.58c18.79,8.64,37.87,16.75,57.23,24.31
			c31.81,12.43,64.36,23.39,97.56,32.79c31.94,9.04,64.48,16.64,97.56,22.71c32.05,5.9,64.59,10.37,97.56,13.34
			c32.13,2.9,64.67,4.39,97.56,4.39H1365.5z"/>
		<path class="st0" d="M292.5,1365.35v0.15h-0.32v-97.71h4.71C293.99,1299.92,292.5,1332.46,292.5,1365.35z"/>
		<path class="st0" d="M292.5,1365.5c0,32.83,1.47,65.32,4.36,97.41h-4.68v-97.41H292.5z"/>
	</g>
	<g>
		<line class="st1" x1="3999.5" y1="3901.94" x2="3987.92" y2="3901.94"/>
		<line class="st1" x1="3999.5" y1="3804.38" x2="3989.43" y2="3804.38"/>
		<line class="st1" x1="2230.84" y1="2438.52" x2="2210.92" y2="2438.52"/>
		<line class="st1" x1="1365.35" y1="877.55" x2="1358.56" y2="877.55"/>
		<path class="st1" d="M1393.72,2731.21c23.21-0.47,46.28-1.52,69.19-3.13c32.86-2.31,65.4-5.79,97.57-10.4
			c32.92-4.69,65.45-10.57,97.56-17.58c32.98-7.19,65.52-15.58,97.56-25.11c33.06-9.84,65.6-20.89,97.56-33.12
			c7.03-2.68,14.04-5.42,21.01-8.22c25.92-10.41,51.45-21.58,76.55-33.51c33.28-15.8,65.82-32.91,97.56-51.27
			c7.26-4.19,14.48-8.45,21.65-12.78c25.88-15.6,51.19-32.04,75.91-49.28c22.19-15.46,43.89-31.57,65.08-48.29
			c3.71-2.92,7.4-5.87,11.08-8.84l8.84,8.84l12.56,12.56l85.01,85.01l110.11,110.11l85.01,85.01l195.12,195.12l12.56,12.56
			l1015.72,1015.72c16.71,16.71,36.45,28.54,57.45,35.48c14.95,4.96,30.55,7.43,46.14,7.43c17.44,0,34.87-3.09,51.42-9.29
			c19.02-7.11,36.87-18.32,52.17-33.62c15.44-15.44,26.71-33.46,33.81-52.67c11.6-31.37,12.11-65.92,1.51-97.56
			c-6.97-20.81-18.74-40.37-35.32-56.95l-333.3-333.3l-11.55-11.55l-86.01-86.01l-11.55-11.55l-86.01-86.01l-195.12-195.12
			l-11.56-11.56l-780.49-780.49l-9.28-9.28c3.11-3.86,6.21-7.74,9.28-11.64c16.72-21.19,32.83-42.89,48.29-65.08
			c17.24-24.72,33.68-50.03,49.28-75.91c4.33-7.17,8.59-14.39,12.78-21.65c18.36-31.74,35.47-64.28,51.27-97.56
			c11.93-25.1,23.1-50.63,33.51-76.55c2.8-6.97,5.54-13.98,8.22-21.01c12.23-31.96,23.28-64.5,33.12-97.56
			c9.53-32.04,17.92-64.58,25.11-97.56c7.01-32.11,12.89-64.64,17.58-97.56c4.61-32.17,8.09-64.71,10.4-97.57
			c1.61-22.91,2.66-45.98,3.13-69.19"/>
		<path class="st1" d="M2731.21,1337.28c-0.47-23.31-1.52-46.48-3.15-69.49c-2.32-32.86-5.81-65.39-10.42-97.56
			c-4.7-32.92-10.59-65.45-17.6-97.56c-7.2-32.98-15.6-65.52-25.14-97.56c-9.84-33.06-20.9-65.6-33.14-97.56
			c-2.64-6.93-5.35-13.84-8.11-20.72c-10.45-26.02-21.67-51.64-33.65-76.84c-15.81-33.28-32.93-65.82-51.3-97.56
			c-4.13-7.16-8.34-14.28-12.61-21.36c-15.66-25.98-32.17-51.39-49.48-76.2c-15.4-22.09-31.44-43.69-48.09-64.79
			c-8.73-11.07-17.63-22-26.69-32.78c-22.62-26.93-46.26-52.97-70.87-78.06c-6.44-6.57-12.94-13.07-19.51-19.5
			c-25.09-24.59-51.13-48.22-78.05-70.82c-10.81-9.08-21.76-18-32.86-26.74c-21.07-16.62-42.65-32.62-64.7-47.99
			c-24.87-17.35-50.35-33.89-76.4-49.57c-7.01-4.23-14.07-8.4-21.16-12.49c-31.74-18.36-64.28-35.47-97.56-51.27
			c-25.34-12.04-51.11-23.31-77.28-33.8c-6.73-2.7-13.49-5.35-20.28-7.93c-31.96-12.23-64.5-23.28-97.56-33.12
			c-32.04-9.53-64.58-17.92-97.56-25.11c-32.11-7.01-64.64-12.89-97.56-17.58c-32.17-4.61-64.71-8.09-97.57-10.4
			c-32.18-2.27-64.66-3.42-97.41-3.42h-0.15c-32.8,0-65.34,1.16-97.56,3.44c-32.86,2.32-65.39,5.81-97.56,10.42
			c-32.92,4.7-65.45,10.59-97.56,17.6c-32.98,7.2-65.52,15.6-97.56,25.14c-33.06,9.84-65.6,20.9-97.56,33.14
			c-6.69,2.55-13.35,5.16-19.99,7.82c-26.27,10.53-52.14,21.85-77.57,33.94c-33.28,15.81-65.82,32.93-97.56,51.3
			c-7,4.04-13.95,8.14-20.87,12.32c-26.15,15.74-51.73,32.35-76.69,49.77c-21.95,15.31-43.43,31.25-64.41,47.79
			c-11.2,8.83-22.25,17.82-33.16,26.99c-26.82,22.53-52.75,46.07-77.75,70.57c-6.67,6.53-13.28,13.14-19.81,19.81
			c-24.5,25-48.04,50.93-70.57,77.75c-9.17,10.91-18.16,21.96-26.99,33.16c-16.54,20.98-32.48,42.46-47.79,64.41
			c-17.42,24.96-34.03,50.54-49.77,76.69c-4.18,6.92-8.28,13.87-12.32,20.87c-18.37,31.74-35.49,64.28-51.3,97.56
			c-12.09,25.43-23.41,51.3-33.94,77.57c-2.66,6.64-5.27,13.3-7.82,19.99c-12.24,31.96-23.3,64.5-33.14,97.56
			c-9.54,32.04-17.94,64.58-25.14,97.56c-7.01,32.11-12.9,64.64-17.6,97.56c-4.61,32.17-8.1,64.7-10.42,97.56
			c-2.28,32.22-3.44,64.76-3.44,97.56v0.15c0,32.75,1.15,65.23,3.42,97.41c2.31,32.86,5.79,65.4,10.4,97.57
			c4.69,32.92,10.57,65.45,17.58,97.56c7.19,32.98,15.58,65.52,25.11,97.56c9.84,33.06,20.89,65.6,33.12,97.56
			c2.58,6.79,5.23,13.55,7.93,20.28c10.49,26.17,21.76,51.94,33.8,77.28c15.8,33.28,32.91,65.82,51.27,97.56
			c4.09,7.09,8.26,14.15,12.49,21.16c15.68,26.05,32.22,51.53,49.57,76.4c15.37,22.05,31.37,43.63,47.99,64.7
			c8.74,11.1,17.66,22.05,26.74,32.86c22.6,26.92,46.23,52.96,70.82,78.05c6.43,6.57,12.93,13.07,19.5,19.51
			c25.09,24.61,51.13,48.25,78.06,70.87c10.78,9.06,21.71,17.96,32.78,26.69c21.1,16.65,42.7,32.69,64.79,48.09
			c24.81,17.31,50.22,33.82,76.2,49.48c7.08,4.27,14.2,8.48,21.36,12.61c31.74,18.37,64.28,35.49,97.56,51.3
			c25.2,11.98,50.82,23.2,76.84,33.65c6.88,2.76,13.79,5.47,20.72,8.11c31.96,12.24,64.5,23.3,97.56,33.14
			c32.04,9.54,64.58,17.94,97.56,25.14c32.11,7.01,64.64,12.9,97.56,17.6c32.17,4.61,64.7,8.1,97.56,10.42
			c23.01,1.63,46.18,2.68,69.49,3.15"/>
		<line class="st1" x1="3901.94" y1="3999.5" x2="3901.94" y2="3988.23"/>
		<line class="st1" x1="3804.38" y1="3999.5" x2="3804.38" y2="3990.09"/>
		<line class="st1" x1="2438.52" y1="2231.84" x2="2438.52" y2="2210.92"/>
		<polyline class="st1" points="1853.16,1347.21 1853.16,1365.35 1853.16,1383.79 		"/>
		<polyline class="st1" points="296.89,1267.79 292.18,1267.79 292.18,1365.5 292.18,1462.91 296.86,1462.91 		"/>
		<path class="st1" d="M1393.72,2731.21c-9.38,0.19-18.79,0.29-28.22,0.29h-0.15c-9.38,0-18.74-0.1-28.07-0.29H1393.72z"/>
		<path class="st1" d="M2731.21,1337.28c0.19,9.33,0.29,18.69,0.29,28.07v0.15c0,9.43-0.1,18.84-0.29,28.22V1337.28z"/>
		<path class="st1" d="M296.86,1462.91c2.97,32.97,7.43,65.52,13.32,97.57c6.06,33.08,13.65,65.62,22.68,97.56
			c9.39,33.2,20.33,65.75,32.76,97.56c7.5,19.23,15.55,38.19,24.12,56.86c6.29,13.73,12.87,27.29,19.73,40.7
			c17.16,33.58,36.04,66.14,56.53,97.56c6.91,10.61,14.02,21.1,21.3,31.44c15.97,22.71,32.79,44.76,50.43,66.12
			c15.13,18.31,30.85,36.12,47.14,53.38c14.29,15.16,29.02,29.89,44.17,44.18c17.26,16.31,35.07,32.05,53.39,47.19
			c21.32,17.61,43.32,34.42,65.98,50.37c10.39,7.32,20.92,14.46,31.58,21.41c31.42,20.5,63.97,39.4,97.56,56.57
			c13.28,6.8,26.73,13.33,40.33,19.58c18.79,8.64,37.87,16.75,57.23,24.31c31.81,12.43,64.36,23.39,97.56,32.79
			c31.94,9.04,64.48,16.64,97.56,22.71c32.05,5.9,64.59,10.37,97.56,13.34c32.13,2.9,64.67,4.39,97.56,4.39h0.15
			c32.83,0,65.32-1.47,97.41-4.36c32.97-2.97,65.52-7.43,97.57-13.32c33.08-6.06,65.62-13.65,97.56-22.68
			c33.2-9.39,65.75-20.33,97.56-32.76c19.46-7.59,38.64-15.74,57.52-24.42c13.5-6.2,26.85-12.68,40.04-19.43
			c33.58-17.16,66.14-36.04,97.56-56.53c10.76-7.01,21.39-14.21,31.87-21.6c22.55-15.88,44.46-32.6,65.69-50.13
			c18.42-15.22,36.32-31.03,53.68-47.43c15.05-14.19,29.69-28.83,43.88-43.88c16.4-17.36,32.21-35.26,47.43-53.68
			c17.53-21.23,34.25-43.14,50.13-65.69c7.39-10.48,14.59-21.11,21.6-31.87c20.49-31.42,39.37-63.98,56.53-97.56
			c6.75-13.19,13.23-26.54,19.43-40.04c8.68-18.88,16.83-38.06,24.42-57.52c12.43-31.81,23.37-64.36,32.76-97.56
			c9.03-31.94,16.62-64.48,22.68-97.56c5.89-32.05,10.35-64.6,13.32-97.57c2.89-32.09,4.36-64.58,4.36-97.41v-0.15
			c0-32.89-1.49-65.43-4.39-97.56c-2.97-32.97-7.44-65.51-13.34-97.56c-6.07-33.08-13.67-65.62-22.71-97.56
			c-9.4-33.2-20.36-65.75-32.79-97.56c-7.56-19.36-15.67-38.44-24.31-57.23c-6.25-13.6-12.78-27.05-19.58-40.33
			c-17.17-33.59-36.07-66.14-56.57-97.56c-6.95-10.66-14.09-21.19-21.41-31.58c-15.95-22.66-32.76-44.66-50.37-65.98
			c-15.14-18.32-30.88-36.13-47.19-53.39c-14.29-15.15-29.02-29.88-44.18-44.17c-17.26-16.29-35.07-32.01-53.38-47.14
			c-21.36-17.64-43.41-34.46-66.12-50.43c-10.34-7.28-20.83-14.39-31.44-21.3c-31.42-20.49-63.98-39.37-97.56-56.53
			c-13.41-6.86-26.97-13.44-40.7-19.73c-18.67-8.57-37.63-16.62-56.86-24.12c-31.81-12.43-64.36-23.37-97.56-32.76
			c-31.94-9.03-64.48-16.62-97.56-22.68c-32.05-5.89-64.6-10.35-97.57-13.32c-32.09-2.89-64.58-4.36-97.41-4.36h-0.15
			c-32.89,0-65.43,1.49-97.56,4.39c-32.97,2.97-65.51,7.44-97.56,13.34c-33.08,6.07-65.62,13.67-97.56,22.71
			c-33.2,9.4-65.75,20.36-97.56,32.79c-19.13,7.48-37.99,15.48-56.57,24.01c-13.83,6.34-27.49,12.97-40.99,19.88
			c-33.59,17.17-66.14,36.07-97.56,56.57c-10.52,6.85-20.9,13.89-31.15,21.11c-22.81,16.04-44.96,32.95-66.41,50.67
			c-18.21,15.05-35.92,30.7-53.09,46.9c-15.26,14.38-30.09,29.21-44.47,44.47c-16.2,17.17-31.85,34.88-46.9,53.09
			c-17.72,21.45-34.63,43.6-50.67,66.41c-7.22,10.25-14.26,20.63-21.11,31.15c-20.5,31.42-39.4,63.97-56.57,97.56
			c-6.91,13.5-13.54,27.16-19.88,40.99c-8.53,18.58-16.53,37.44-24.01,56.57c-12.43,31.81-23.39,64.36-32.79,97.56
			c-9.04,31.94-16.64,64.48-22.71,97.56c-5.9,32.05-10.37,64.59-13.34,97.56c-2.9,32.13-4.39,64.67-4.39,97.56v0.15
			C292.5,1398.33,293.97,1430.82,296.86,1462.91z"/>
		<path class="st1" d="M2142.41,1434.91c0.01,0,0.01,0,0,0.01"/>
		<polyline class="st1" points="1365.35,877.5 1365.35,877.55 1372.44,877.55 		"/>
		<path class="st1" d="M1340.84,584.87c8.02-0.25,16.08-0.37,24.16-0.37h0.35c7.97,0,15.9,0.13,23.81,0.37"/>
		<path class="st1" d="M1141.78,931.7c-16.37,6.33-34.17,9.8-52.78,9.8c-5.52,0-10.97-0.31-16.33-0.91
			c-39.31-4.35-73.93-24.26-97.56-53.44c-2.51-3.09-4.9-6.3-7.15-9.6c-16.06-23.5-25.46-51.93-25.46-82.55
			c0-5.07,0.26-10.08,0.76-15.01c2.96-29.07,14.42-55.63,31.85-77.14c6.03-7.45,12.77-14.29,20.13-20.42
			c8.4-7,17.58-13.08,27.41-18.07l-0.62-0.66c16.56-8.12,33.45-15.66,50.64-22.61c31.55-12.75,64.12-23.5,97.56-32.09
			c31.78-8.17,64.35-14.38,97.56-18.5c24.03-2.99,48.39-4.88,73.05-5.63h48.32c24.89,0.75,49.49,2.68,73.75,5.72
			c33.22,4.15,65.78,10.39,97.57,18.59c33.44,8.63,66.01,19.41,97.56,32.2c29.53,11.97,58.16,25.69,85.76,41.05
			c3.96,2.19,7.89,4.42,11.8,6.69c34.25,19.84,66.86,42.2,97.56,66.84c9.7,7.79,19.21,15.8,28.52,24.03
			c24.42,21.58,47.48,44.68,69.04,69.13c8.18,9.28,16.15,18.76,23.88,28.43c24.59,30.71,46.9,63.31,66.69,97.56
			c2.37,4.1,4.7,8.22,6.99,12.37c15.2,27.43,28.78,55.87,40.63,85.19c12.75,31.55,23.5,64.12,32.09,97.56
			c8.17,31.78,14.38,64.35,18.5,97.56c3.96,31.85,6,64.29,6,97.21v0.35c-0.01,23.4-1.05,46.57-3.08,69.44c0,0.04,0,0.08-0.01,0.11
			v0.01c0,0.01,0,0.01,0,0.01"/>
		<path class="st1" d="M1852.14,1402.18v-0.03c0.46-6.09,0.8-12.21,1.02-18.36c0.23-6.07,0.34-12.16,0.34-18.29v-0.15
			c0-6.07-0.11-12.12-0.34-18.14c-1-27.1-4.2-53.63-9.45-79.42c-6.89-33.93-17.31-66.58-30.85-97.56
			c-15.22-34.83-34.39-67.54-56.95-97.56c-0.1-0.13-0.2-0.27-0.31-0.4c-27.68-36.78-60.45-69.51-97.25-97.16
			c-0.1-0.08-0.21-0.16-0.31-0.24c-30.03-22.52-62.74-41.67-97.56-56.86c-30.98-13.52-63.64-23.91-97.57-30.78
			c-29.29-5.94-59.53-9.25-90.47-9.68c-2.31-0.03-4.62-0.05-6.94-0.05h-0.15c-2.27,0-4.53,0.02-6.79,0.05
			c-31.04,0.43-61.39,3.76-90.77,9.74c-33.93,6.89-66.58,17.31-97.56,30.85c-2.2,0.96-4.39,1.94-6.57,2.93"/>
		<path class="st1" d="M2140.35,1455.1c0,0.05-0.01,0.09-0.02,0.14c-0.44,2.58-0.96,5.14-1.54,7.67
			c-9.78,42.61-38.15,78.13-76.11,97.57c-4.66,2.39-9.47,4.53-14.4,6.41c-16.23,6.21-33.86,9.61-52.28,9.61
			c-15.8,0-31.02-2.5-45.28-7.13c-7.41-2.41-14.56-5.39-21.4-8.89c-37.96-19.44-66.33-54.96-76.11-97.57
			c-0.02-0.07-0.03-0.15-0.05-0.22c-2.39-10.51-3.66-21.45-3.66-32.69c0-0.61,0-1.21,0.01-1.81"/>
		<path class="st1" d="M1163.66,921.07c-6.94,4.12-14.26,7.69-21.88,10.63C1148.97,927.97,1156.26,924.43,1163.66,921.07z"/>
		<path class="st1" d="M1852.14,1402.18c-0.65,8.74-1.53,17.41-2.63,26.01C1849.62,1419.3,1850.52,1410.61,1852.14,1402.18z"/>
		<path class="st1" d="M2142.41,1434.97c-0.22,6.84-0.92,13.56-2.06,20.13C2141.12,1448.42,2141.81,1441.71,2142.41,1434.97
			c0-0.01,0-0.02,0-0.03c0,0,0.01-0.01,0-0.02"/>
		<line class="st1" x1="1072.5" y1="716.5" x2="1039.93" y2="682.43"/>
	</g>
</g>
</svg>
