<?xml version="1.0" encoding="utf-8"?>
<!-- Generator: Adobe Illustrator 26.3.1, SVG Export Plug-In . SVG Version: 6.00 Build 0)  -->
<svg version="1.1" id="Слой_1" xmlns="http://www.w3.org/2000/svg" xmlns:xlink="http://www.w3.org/1999/xlink" x="0px" y="0px"
	 viewBox="0 0 1920 1920" style="enable-background:new 0 0 1920 1920;" xml:space="preserve">
<style type="text/css">
	.st0{fill:#FFFFFF;}
	.st1{fill:#5A5A5A;}
	.st2{fill:none;stroke:#000000;stroke-miterlimit:10;}
</style>
<g>
	<path class="st0" d="M750,1335.5c-79.04,0-155.72-15.48-227.9-46.01c-69.72-29.49-132.34-71.71-186.11-125.48
		c-53.77-53.77-95.99-116.39-125.48-186.11C179.98,905.72,164.5,829.04,164.5,750s15.48-155.72,46.01-227.9
		c29.49-69.72,71.71-132.34,125.48-186.11C389.76,282.22,452.38,240,522.1,210.51c72.18-30.53,148.86-46.01,227.9-46.01
		s155.72,15.48,227.9,46.01c69.72,29.49,132.34,71.71,186.11,125.48c53.77,53.77,95.99,116.39,125.48,186.11
		c30.53,72.18,46.01,148.86,46.01,227.9c0,64.66-10.47,128.19-31.12,188.82c-19.96,58.62-49.06,113.53-86.49,163.2
		c-33.03,43.85-72.02,82.84-115.87,115.87c-49.67,37.43-104.58,66.53-163.2,86.49C878.19,1325.03,814.66,1335.5,750,1335.5z"/>
	<path d="M750,165c78.98,0,155.59,15.47,227.71,45.97c34.66,14.66,68.1,32.81,99.37,53.94c30.98,20.93,60.11,44.96,86.58,71.43
		c26.47,26.47,50.51,55.6,71.43,86.58c21.13,31.27,39.27,64.71,53.94,99.37C1319.53,594.41,1335,671.02,1335,750
		c0,64.6-10.46,128.08-31.09,188.66c-19.95,58.57-49.02,113.43-86.42,163.06c-33.01,43.82-71.96,82.77-115.77,115.77
		c-49.62,37.4-104.49,66.47-163.06,86.42C878.08,1324.54,814.6,1335,750,1335c-78.98,0-155.59-15.47-227.71-45.97
		c-34.66-14.66-68.1-32.81-99.37-53.94c-30.98-20.93-60.11-44.96-86.58-71.43c-26.47-26.47-50.51-55.6-71.43-86.58
		c-21.13-31.27-39.27-64.71-53.94-99.37C180.47,905.59,165,828.98,165,750s15.47-155.59,45.97-227.71
		c14.66-34.66,32.81-68.1,53.94-99.37c20.93-30.98,44.96-60.11,71.43-86.58c26.47-26.47,55.6-50.51,86.58-71.43
		c31.27-21.13,64.71-39.27,99.37-53.94C594.41,180.47,671.02,165,750,165 M750,164c-323.64,0-586,262.36-586,586s262.36,586,586,586
		c132.25,0,254.26-43.81,352.32-117.71c43.86-33.04,82.93-72.11,115.97-115.97C1292.19,1004.26,1336,882.25,1336,750
		C1336,426.36,1073.64,164,750,164L750,164z"/>
</g>
<g>
	<path class="st0" d="M750,1335.5c-79.04,0-155.72-15.48-227.9-46.01c-69.72-29.49-132.34-71.71-186.11-125.48
		c-53.77-53.77-95.99-116.39-125.48-186.11C179.98,905.72,164.5,829.04,164.5,750s15.48-155.72,46.01-227.9
		c29.49-69.72,71.71-132.34,125.48-186.11C389.76,282.22,452.38,240,522.1,210.51c72.18-30.53,148.86-46.01,227.9-46.01
		s155.72,15.48,227.9,46.01c69.72,29.49,132.34,71.71,186.11,125.48c53.77,53.77,95.99,116.39,125.48,186.11
		c30.53,72.18,46.01,148.86,46.01,227.9c0,64.66-10.47,128.19-31.12,188.82c-19.96,58.62-49.06,113.53-86.49,163.2
		c-33.03,43.85-72.02,82.84-115.87,115.87c-49.67,37.43-104.58,66.53-163.2,86.49C878.19,1325.03,814.66,1335.5,750,1335.5z"/>
	<path d="M750,165c78.98,0,155.59,15.47,227.71,45.97c34.66,14.66,68.1,32.81,99.37,53.94c30.98,20.93,60.11,44.96,86.58,71.43
		c26.47,26.47,50.51,55.6,71.43,86.58c21.13,31.27,39.27,64.71,53.94,99.37C1319.53,594.41,1335,671.02,1335,750
		c0,64.6-10.46,128.08-31.09,188.66c-19.95,58.57-49.02,113.43-86.42,163.06c-33.01,43.82-71.96,82.77-115.77,115.77
		c-49.62,37.4-104.49,66.47-163.06,86.42C878.08,1324.54,814.6,1335,750,1335c-78.98,0-155.59-15.47-227.71-45.97
		c-34.66-14.66-68.1-32.81-99.37-53.94c-30.98-20.93-60.11-44.96-86.58-71.43c-26.47-26.47-50.51-55.6-71.43-86.58
		c-21.13-31.27-39.27-64.71-53.94-99.37C180.47,905.59,165,828.98,165,750s15.47-155.59,45.97-227.71
		c14.66-34.66,32.81-68.1,53.94-99.37c20.93-30.98,44.96-60.11,71.43-86.58c26.47-26.47,55.6-50.51,86.58-71.43
		c31.27-21.13,64.71-39.27,99.37-53.94C594.41,180.47,671.02,165,750,165 M750,164c-323.64,0-586,262.36-586,586s262.36,586,586,586
		c132.25,0,254.26-43.81,352.32-117.71c43.86-33.04,82.93-72.11,115.97-115.97C1292.19,1004.26,1336,882.25,1336,750
		C1336,426.36,1073.64,164,750,164L750,164z"/>
</g>
<g>
	<path class="st1" d="M1892.15,1776.56l0.19-0.19l-557.19-557.19C1438.29,1090.71,1500,927.56,1500,750c0-414.21-335.79-750-750-750
		S0,335.79,0,750s335.79,750,750,750c177.56,0,340.71-61.7,469.17-164.83c0.01-0.01,0.01-0.01,0.02-0.01l557.18,557.18l0.19-0.19
		c15.04,17.66,37.43,28.85,62.44,28.85c45.29,0,82-36.71,82-82C1921,1813.99,1909.81,1791.6,1892.15,1776.56z M750,1336
		c-323.64,0-586-262.36-586-586s262.36-586,586-586s586,262.36,586,586c0,132.25-43.81,254.26-117.71,352.32
		c-33.04,43.86-72.11,82.93-115.97,115.97C1004.26,1292.19,882.25,1336,750,1336z"/>
</g>
<g>
	<path class="st2" d="M1194.5,1310.5"/>
</g>
<g>
	<path class="st2" d="M1777.5,1893.5"/>
</g>
<path class="st2" d="M1318,1203"/>
<path class="st2" d="M1888.5,1773.5"/>
</svg>
