<?xml version="1.0" encoding="utf-8"?>
<!-- Generator: Adobe Illustrator 26.3.1, SVG Export Plug-In . SVG Version: 6.00 Build 0)  -->
<svg version="1.1" id="Слой_1" xmlns="http://www.w3.org/2000/svg" xmlns:xlink="http://www.w3.org/1999/xlink" x="0px" y="0px"
	 viewBox="0 0 1920 1920" style="enable-background:new 0 0 1920 1920;" xml:space="preserve">
<style type="text/css">
	.st0{fill:#5A5A5A;}
</style>
<g>
	<path class="st0" d="M1080.59,960.25l814.48,814.48c33.23,33.23,33.23,87.11,0,120.34l0,0c-33.23,33.23-87.11,33.23-120.34,0
		l-814.48-814.48l-814.48,814.48c-33.23,33.23-87.11,33.23-120.34,0l0,0c-33.23-33.23-33.23-87.11,0-120.34l814.48-814.48
		L25.42,145.77c-33.23-33.23-33.23-87.11,0-120.34l0,0c33.23-33.23,87.11-33.23,120.34,0l814.48,814.48l814.48-814.48
		c33.23-33.23,87.11-33.23,120.34,0l0,0c33.23,33.23,33.23,87.11,0,120.34L1080.59,960.25z"/>
</g>
</svg>
